<svg width="20" height="20" viewBox="0 0 20 20" fill="none" xmlns="http://www.w3.org/2000/svg">
<path d="M6.77672 8.98893L10.9602 13.1679C11.1363 13.3439 11.4202 13.3399 11.5961 13.1637C11.5972 13.1626 11.5983 13.1615 11.5994 13.1604C12.3569 12.4036 13.3456 12.0212 14.3334 12.0135L7.93332 5.62012C7.92511 6.60645 7.54187 7.59359 6.7843 8.35036C6.78291 8.35174 6.78152 8.35313 6.78013 8.35448C6.6041 8.52989 6.60094 8.81333 6.77672 8.98893Z" fill="white"/>
<path d="M14.811 19.947C12.6527 19.947 9.73052 18.4804 6.79382 15.9234C4.00672 13.4966 1.71167 10.5257 0.654534 7.97632C-0.320128 5.62571 -0.204406 3.75302 0.989224 2.5606C1.81117 1.73952 2.90089 1.28206 4.05767 1.27248C4.18433 1.27138 4.30994 1.32199 4.4009 1.41281L8.27263 5.28044C8.3636 5.37131 8.41421 5.49487 8.41311 5.62331C8.40356 6.77144 7.95142 7.85338 7.1394 8.6726L11.2761 12.8049C12.0968 11.9935 13.1801 11.5424 14.3297 11.5334C14.4561 11.5323 14.5818 11.5829 14.6727 11.6738L18.5454 15.5424C18.6364 15.6333 18.6869 15.7568 18.6859 15.8853C18.6763 17.0407 18.2184 18.1293 17.3964 18.9504C16.7344 19.6117 15.8645 19.947 14.811 19.947ZM3.87003 2.23806C3.03983 2.29183 2.26398 2.64275 1.66777 3.23838C0.534446 4.37051 0.973296 6.24027 1.54106 7.60949C2.54422 10.0288 4.74355 12.8666 7.42434 15.2009C10.1481 17.5726 12.9096 18.9885 14.811 18.9885C15.6008 18.9885 16.2423 18.7476 16.7179 18.2726C17.3141 17.677 17.6655 16.9019 17.7192 16.0727L14.1418 12.499C13.3112 12.5523 12.5353 12.9027 11.9393 13.4979C11.9382 13.4991 11.937 13.5002 11.9359 13.5014C11.7588 13.6787 11.5238 13.7764 11.2742 13.7764C11.0274 13.7764 10.7955 13.6804 10.621 13.506L6.43754 9.32703C6.26276 9.15244 6.16661 8.92033 6.16676 8.67346C6.1669 8.42472 6.26444 8.19065 6.44138 8.01442L6.44805 8.0078C7.04158 7.4149 7.39268 6.64007 7.44651 5.81075L3.87003 2.23806Z" fill="#AF1F2D"/>
<path d="M19.4942 14.8538C19.3714 14.8538 19.2487 14.807 19.155 14.7134L15.3593 10.9217C15.1719 10.7345 15.1719 10.431 15.3593 10.2438C15.5466 10.0567 15.8504 10.0567 16.0378 10.2439L19.8335 14.0356C20.0209 14.2228 20.0209 14.5262 19.8335 14.7134C19.7398 14.807 19.617 14.8538 19.4942 14.8538Z" fill="#AF1F2D"/>
<path d="M9.29995 4.66926C9.17718 4.66926 9.0544 4.62248 8.9607 4.52888L5.246 0.818162C5.05865 0.631009 5.0586 0.327537 5.246 0.140383C5.4334 -0.0467704 5.73715 -0.0468183 5.9245 0.140383L9.6392 3.8511C9.82655 4.03826 9.82655 4.34173 9.6392 4.52888C9.5455 4.62244 9.42277 4.66926 9.29995 4.66926Z" fill="#AF1F2D"/>
</svg>
