<svg width="20" height="20" viewBox="0 0 20 20" fill="none" xmlns="http://www.w3.org/2000/svg">
<path d="M19.8876 10.3107L17.2155 12.7545L17.1929 12.7771C16.9702 12.9767 16.6136 12.955 16.4362 12.7328C16.2805 12.5549 16.2579 12.3111 16.3692 12.1332C16.3918 12.0889 16.4362 12.0221 16.4805 11.9778L17.7722 10.8228L18.0175 10.6006L10.6466 10.5997V17.931C10.6466 17.931 11.626 16.8428 11.9827 16.4644C11.9827 16.4644 12.0714 16.3759 12.1384 16.3308C12.3384 16.2197 12.5837 16.2423 12.7837 16.3976C13.0064 16.5972 13.029 16.953 12.8064 17.1526L10.3127 19.8636C10.157 20.0415 9.86732 20.0415 9.689 19.8862L7.23961 17.2202L7.21699 17.1977C7.01694 16.9755 7.03868 16.6197 7.26136 16.4427C7.43967 16.2874 7.68408 16.2648 7.86239 16.3759C7.90675 16.3984 7.97373 16.4427 8.01809 16.4869L9.1758 17.7757L9.39848 18.0204V16.0652L9.40022 10.6223H2.07386C2.07386 10.6223 3.1646 11.5994 3.54386 11.9552C3.54386 11.9552 3.63258 12.0437 3.67781 12.1106C3.78914 12.3102 3.76653 12.5549 3.61083 12.7545C3.41077 12.9766 3.05415 12.9992 2.83148 12.777L0.136704 10.2891C-0.0416073 10.1337 -0.0416073 9.84474 0.114089 9.66684L2.78615 7.22307L2.80877 7.20051C3.03144 7.00091 3.38807 7.0226 3.56549 7.24477C3.72119 7.42267 3.74381 7.66652 3.63247 7.84442C3.60986 7.88868 3.56549 7.9555 3.52113 7.99976L2.22946 9.15482L1.98416 9.37698H9.35505L9.35592 3.95737V2.00218L9.13325 2.24691L7.97553 3.53562C7.93117 3.57988 7.88681 3.62414 7.81983 3.6467C7.61978 3.73522 7.37449 3.73522 7.2188 3.57988C6.99613 3.38028 6.9735 3.04705 7.17444 2.82489L7.19705 2.80233L8.1321 1.78003C8.1321 1.78003 9.64644 0.136399 9.64644 0.113827C9.82475 -0.0415118 10.0918 -0.0415118 10.2701 0.13639L11.1382 1.09186L12.7638 2.84657C12.9639 3.06873 12.9639 3.40197 12.7412 3.60156C12.5629 3.7569 12.2959 3.77946 12.0958 3.66838C12.0071 3.62413 11.9401 3.53474 11.9401 3.53474C11.5835 3.13467 10.6041 2.06813 10.6041 2.06813V9.37677H17.8853C17.8853 9.37677 16.7945 8.39961 16.4153 8.0438C16.4153 8.0438 16.3265 7.95528 16.2813 7.88846C16.17 7.68887 16.1926 7.44414 16.3483 7.24455C16.5484 7.02239 16.905 6.99982 17.1276 7.22199L19.844 9.70997C20.0441 9.86617 20.0441 10.1334 19.8875 10.3105L19.8876 10.3107Z" fill="#AF1F2D"/>
</svg>
