<svg width="19" height="18" viewBox="0 0 19 18" fill="none" xmlns="http://www.w3.org/2000/svg">
<path d="M7.13786 8.62637C6.91382 8.74913 6.77044 8.74741 6.2631 8.74312H5.91629C5.55144 8.74741 5.19346 8.94314 4.99517 9.24875C4.89387 9.4007 4.83035 9.5784 4.81318 9.76039C4.80888 9.79816 4.80631 9.86598 4.80631 9.88143V10.0068V10.3407V11.6764V13.0122V13.656C4.80202 13.7419 4.77798 13.8234 4.73162 13.8955C4.68784 13.9676 4.61917 14.0277 4.54706 14.0672C4.50928 14.087 4.4698 14.0998 4.43031 14.111C4.41056 14.1153 4.38824 14.1179 4.3685 14.1196C4.34446 14.1196 4.3376 14.1239 4.2672 14.1222H2.93146H2.26357H2.1803H2.10562C2.073 14.1222 2.03952 14.1264 2.0069 14.1307C1.87469 14.1462 1.74507 14.1814 1.62231 14.2338C1.3785 14.3393 1.16733 14.5213 1.02482 14.7454C0.989618 14.8003 0.956999 14.8621 0.932102 14.9188L0.89948 14.9961L0.831663 15.1497L0.69517 15.4553L0.424751 16.0665C0.187824 16.6031 -0.364157 17.3104 0.361226 17.6727C1.14328 18.0641 1.29094 17.1319 1.52615 16.6262L2.07299 15.4399C2.0996 15.3875 2.12535 15.3824 2.16055 15.3781L2.80696 15.3824L4.11438 15.3866C4.29208 15.3909 4.65091 15.3935 4.92562 15.2811C5.21148 15.1798 5.46386 14.9995 5.65958 14.7711C5.85531 14.5428 5.98923 14.2612 6.04674 13.9642C6.0579 13.8895 6.07078 13.8148 6.07335 13.7401L6.07764 13.6303V13.5487V13.2216L6.07335 11.9142V10.6068V9.99987H6.62276C6.67083 10.0042 6.73693 9.99987 6.8099 9.99987C6.88029 9.99987 6.94811 9.99301 7.01679 9.98013C7.155 9.96296 7.29149 9.92948 7.4237 9.8857C7.95338 9.70972 8.40836 9.3277 8.67875 8.83754C8.95089 8.34564 9.02813 7.74988 8.89423 7.20047C8.82641 6.92577 8.70708 6.66223 8.54484 6.42873C8.46329 6.31198 8.36886 6.20211 8.26757 6.10337L8.03493 5.87501C6.86829 4.70838 6.04589 3.22071 5.69488 1.65313C5.6202 1.30632 5.5189 0.789528 5.30773 0.448718C5.09655 0.101909 4.77377 -0.107547 4.2484 0.0572755C3.81746 0.191195 3.70328 0.519131 3.72132 0.903717C3.7299 1.09687 3.77368 1.30118 3.82691 1.5055C3.85524 1.60679 3.88442 1.70809 3.91018 1.80681C3.9428 1.9124 3.9737 2.01542 4.00461 2.11413C4.55659 3.8834 5.58502 5.49388 6.92768 6.75752C7.00924 6.83907 7.0968 6.91376 7.18265 6.99016L7.30799 7.10262C7.33031 7.11979 7.35005 7.14039 7.3698 7.16013C7.44706 7.23911 7.5123 7.33354 7.55694 7.43741C7.64965 7.6443 7.65824 7.88981 7.58355 8.10529C7.51144 8.32248 7.35091 8.51392 7.14659 8.62809L7.13786 8.62637Z" fill="#AF1F2D"/>
<path d="M13.0274 14.0082C13.0385 13.3266 12.9261 12.6656 12.6977 11.8827C12.6497 11.6981 12.5106 11.4389 11.7483 12.2278C11.1173 12.8759 11.2624 12.8802 11.3113 12.9489C11.5156 13.2304 11.7595 13.5532 11.7663 13.9533C11.7663 14.3602 11.6187 14.7533 11.3706 15.0692C11.3225 15.1216 11.1113 15.0366 11.6762 15.6144C12.2848 16.241 12.2367 15.9328 12.3131 15.8624C12.7947 15.3791 13.0119 14.6778 13.0248 14.0073L13.0274 14.0082Z" fill="#AF1F2D"/>
<path d="M16.6654 17.7988C17.4432 18.2495 17.5616 17.8366 17.6784 17.5902C18.2364 16.463 18.3814 15.1926 18.39 13.9709C18.39 12.6849 18.093 11.3973 17.5196 10.2461C17.4208 10.0641 17.456 9.67011 16.753 10.0684C15.9924 10.4968 16.3332 10.6178 16.4062 10.7758C16.8191 11.7605 17.129 12.8018 17.129 13.8791C17.129 14.9427 16.826 16.0347 16.1117 16.8219C15.9512 17.0091 15.7143 17.2486 16.668 17.7997L16.6654 17.7988Z" fill="#AF1F2D"/>
</svg>
