<svg width="26" height="19" viewBox="0 0 26 19" fill="none" xmlns="http://www.w3.org/2000/svg">
<path d="M2.4381 0C1.09793 0 0 1.09793 0 2.4381V15.8476C0 17.1878 1.09793 18.2857 2.4381 18.2857H23.1619C24.5021 18.2857 25.6 17.1878 25.6 15.8476V2.4381C25.6 1.09793 24.5021 0 23.1619 0H2.4381ZM2.4381 1.21905H23.1619C23.2766 1.21905 23.3814 1.23864 23.4857 1.26667L13.6381 11.2C13.1586 11.6845 12.4214 11.6845 11.9429 11.2L2.12381 1.25714C2.2247 1.23112 2.32771 1.21905 2.4381 1.21905ZM1.26667 2.13333L8.52381 9.47617L1.27619 16.2C1.24316 16.0876 1.21905 15.9725 1.21905 15.8476V2.4381C1.21905 2.33069 1.24197 2.23179 1.26667 2.13333ZM24.3333 2.13333C24.358 2.23179 24.381 2.33069 24.381 2.4381V15.8476C24.381 15.9725 24.3568 16.0876 24.3238 16.2L17.0762 9.46667L24.3333 2.13333ZM16.2095 10.3333L23.4286 17.0286C23.3419 17.0475 23.2552 17.0667 23.1619 17.0667H2.4381C2.34481 17.0667 2.2581 17.0475 2.17143 17.0286L9.38095 10.3429L11.0762 12.0571C12.0173 13.0098 13.5633 13.0085 14.5048 12.0571L16.2095 10.3333Z" fill="#AF1F2D"/>
</svg>
