<svg width="21" height="20" viewBox="0 0 21 20" fill="none" xmlns="http://www.w3.org/2000/svg">
<path d="M2.04499 0H18.1213C18.6859 0 19.1789 0.212071 19.5673 0.599028C19.9198 0.987381 20.1663 1.48037 20.1663 2.04499V17.5565C20.1663 18.1212 19.9198 18.6142 19.5673 19.0025C19.1789 19.3909 18.6859 19.6015 18.1213 19.6015H2.04499C1.48037 19.6015 0.987382 19.3895 0.599029 19.0025C0.246493 18.6142 0 18.1212 0 17.5565V2.04499C0 1.48037 0.2465 0.987381 0.599029 0.599028C0.987382 0.210675 1.48037 0 2.04499 0ZM18.1213 1.05761H2.04499C1.76268 1.05761 1.51618 1.16364 1.33992 1.33991C1.16365 1.51618 1.05761 1.76267 1.05761 2.04498V17.5565C1.05761 17.8388 1.16365 18.0853 1.33992 18.2616C1.51618 18.4379 1.76268 18.5439 2.04499 18.5439H18.1213C18.4036 18.5439 18.6501 18.4379 18.8264 18.2616C19.0026 18.0853 19.1087 17.8388 19.1087 17.5565V2.04498C19.1087 1.76268 19.0026 1.51618 18.8264 1.33991C18.6501 1.16364 18.4036 1.05761 18.1213 1.05761Z" fill="#AF1F2D"/>
<path fill-rule="evenodd" clip-rule="evenodd" d="M5.64062 15.618V3.98438H10.0473C10.7882 3.98438 11.3872 4.02018 11.81 4.09041C12.3746 4.16064 12.8676 4.37271 13.256 4.61921C13.6443 4.90152 13.961 5.25406 14.1731 5.74704C14.4196 6.24003 14.5256 6.76883 14.5256 7.33345C14.5256 8.32084 14.2089 9.16636 13.5741 9.83702C12.9751 10.5421 11.8114 10.8588 10.1548 10.8588H7.19404V15.618L5.64062 15.618ZM7.19122 9.51883H10.1878C11.1751 9.51883 11.8802 9.30676 12.303 8.95421C12.7257 8.56585 12.9378 8.07287 12.9378 7.3678C12.9378 6.90922 12.8318 6.48646 12.5853 6.13392C12.3388 5.78139 11.9863 5.5693 11.5979 5.42885C11.3514 5.35862 10.857 5.32282 10.1519 5.32282H7.19122V9.51883Z" fill="#AF1F2D"/>
</svg>
