<svg width="100" height="70" viewBox="0 0 100 70" fill="none" xmlns="http://www.w3.org/2000/svg">
<path d="M99.7278 68.0425L94.5358 53.1381C94.3295 52.5479 93.7729 52.1496 93.1443 52.1496H83.2402L78.3937 38.2391C78.1874 37.6489 77.6308 37.2506 77.0022 37.2506H67.0981L62.2469 23.3401C62.0405 22.7498 61.4839 22.3516 60.8553 22.3516H38.9552C38.3266 22.3516 37.77 22.7498 37.5636 23.3401L32.7124 37.2506H22.8083C22.1797 37.2506 21.6231 37.6489 21.4167 38.2391L16.5703 52.1496H6.66621C6.03761 52.1496 5.48099 52.5479 5.27466 53.1381L0.0826529 68.0425C-0.0757019 68.4935 -0.00371929 68.9926 0.274592 69.3812C0.552902 69.7699 0.999159 70.0002 1.47421 70.0002H98.337C98.8121 70.0002 99.2632 69.7699 99.5367 69.3812C99.815 68.9925 99.8814 68.4935 99.7278 68.0425ZM80.1162 52.1493H51.9782L56.1432 40.1962H75.9465L80.1116 52.1493H80.1162ZM66.0472 64.0447L62.9281 55.0955H69.1661L66.0472 64.0447ZM49.9046 49.1453L46.7856 40.1961H53.0236L49.9046 49.1453ZM40.0005 25.292H59.8038L63.9689 37.245H35.8308L39.9959 25.292H40.0005ZM23.858 40.1914H43.6612L47.8263 52.1445H19.6882L23.8533 40.1914H23.858ZM33.7621 64.0447L30.643 55.0955H36.881L33.7621 64.0447ZM3.55046 67.0486L7.71552 55.0955H27.5188L31.6838 67.0486L3.54579 67.0534L3.55046 67.0486ZM35.8393 67.0486L40.0044 55.0955H59.8076L63.9727 67.0486H35.8346H35.8393ZM68.1281 67.0486L72.2932 55.0955H92.0964L96.2615 67.0486H68.1235H68.1281Z" fill="#AF1F2D"/>
<path d="M50.1821 30.3505H55.0957C55.9115 30.3505 56.5689 29.6883 56.5689 28.8774C56.5689 28.0617 55.9115 27.4043 55.0957 27.4043H50.1821C49.3664 27.4043 48.709 28.0665 48.709 28.8774C48.709 29.6931 49.3664 30.3505 50.1821 30.3505Z" fill="#AF1F2D"/>
<path d="M49.9045 13.4597C50.7202 13.4597 51.3776 12.7975 51.3776 11.9866V1.47311C51.3776 0.657373 50.7202 0 49.9045 0C49.0888 0 48.4314 0.662188 48.4314 1.47311V11.9866C48.4314 12.8024 49.0888 13.4597 49.9045 13.4597Z" fill="#AF1F2D"/>
<path d="M64.0255 14.7934C64.1934 14.8558 64.3662 14.8846 64.5389 14.8846C65.1387 14.8846 65.7002 14.5151 65.9209 13.9201L69.5726 4.05921C69.8557 3.29626 69.467 2.44692 68.7041 2.16377C67.9411 1.88066 67.0918 2.26934 66.8086 3.0323L63.1569 12.8931C62.8738 13.6561 63.2625 14.5054 64.0255 14.7886L64.0255 14.7934Z" fill="#AF1F2D"/>
<path d="M77.1307 17.5812C77.3899 17.7635 77.6826 17.8499 77.9753 17.8499C78.4407 17.8499 78.8966 17.6291 79.1845 17.2213L85.2306 8.61759C85.7009 7.95059 85.5377 7.03404 84.8707 6.5638C84.2038 6.09355 83.2824 6.2567 82.817 6.92369L76.7708 15.5274C76.3006 16.1944 76.4638 17.1109 77.1307 17.5812Z" fill="#AF1F2D"/>
<path d="M33.8868 13.925C34.1075 14.52 34.669 14.8895 35.2688 14.8895C35.4367 14.8895 35.6095 14.8607 35.7822 14.7983C36.5452 14.5152 36.9338 13.6659 36.6507 12.9029L32.999 3.04206C32.7159 2.27911 31.8666 1.89042 31.1036 2.17354C30.3406 2.45665 29.9519 3.30599 30.2351 4.06898L33.8868 13.9298L33.8868 13.925Z" fill="#AF1F2D"/>
<path d="M20.6235 17.2213C20.9114 17.6291 21.3673 17.8499 21.8327 17.8499C22.1254 17.8499 22.4229 17.7635 22.6772 17.5812C23.3442 17.1109 23.5026 16.1944 23.0371 15.5274L16.991 6.92369C16.5255 6.2567 15.6043 6.09355 14.9372 6.5638C14.2702 7.03405 14.1119 7.95056 14.5773 8.61758L20.6235 17.2213Z" fill="#AF1F2D"/>
</svg>
