<svg width="90" height="65" viewBox="0 0 90 65" fill="none" xmlns="http://www.w3.org/2000/svg">
<path fill-rule="evenodd" clip-rule="evenodd" d="M90 65V0H0V65H90ZM87.1875 2.82609V62.1739H2.8125V2.82609H87.1875ZM54.8433 36.7355V57.5428L66.0933 51.0852L77.3433 57.5428V36.7355C79.1152 34.3757 80.1558 31.4401 80.1558 28.2608C80.1558 20.4608 73.8558 14.1303 66.0933 14.1303C58.3308 14.1303 52.0308 20.4608 52.0308 28.2608C52.0308 31.4401 53.0714 34.3757 54.8433 36.7355ZM21.0933 53.6957H42.1875V50.8696H21.0933V53.6957ZM74.5308 39.5616C72.1823 41.3385 69.2573 42.3912 66.0933 42.3912C62.9293 42.3912 60.0043 41.3385 57.6558 39.5616V52.6746L66.0933 47.8279L74.5308 52.6746V39.5616ZM66.0933 16.9565C72.2948 16.9565 77.3433 22.0223 77.3433 28.2609C77.3433 34.4994 72.2948 39.5652 66.0933 39.5652C59.8918 39.5652 54.8433 34.4994 54.8433 28.2609C54.8433 22.0223 59.8918 16.9565 66.0933 16.9565ZM8.4375 38.1526H33.75V35.3265H8.4375V38.1526ZM66.0933 21.1961C62.212 21.1961 59.062 24.3613 59.062 28.2613C59.062 32.1613 62.212 35.3265 66.0933 35.3265C69.9745 35.3265 73.1245 32.1613 73.1245 28.2613C73.1245 24.3613 69.9745 21.1961 66.0933 21.1961ZM66.0933 24.0222C68.4277 24.0222 70.312 25.9228 70.312 28.2613C70.312 30.5999 68.4276 32.5005 66.0933 32.5005C63.759 32.5005 61.8745 30.5999 61.8745 28.2613C61.8745 25.9228 63.759 24.0222 66.0933 24.0222ZM8.4375 29.6744H46.4067V26.8483H8.4375V29.6744ZM8.4375 21.1961H49.2183V18.37H8.4375V21.1961ZM35.1567 12.7178H54.8442V9.89176H35.1567V12.7178Z" fill="#AF1F2D"/>
</svg>
