<svg width="73" height="73" viewBox="0 0 73 73" fill="none" xmlns="http://www.w3.org/2000/svg">
<path d="M25.8906 40.5045V44.5058C25.8906 45.1758 26.4332 45.7184 27.1032 45.7184C27.7731 45.7184 28.3157 45.1758 28.3157 44.5058V40.5045C28.3157 39.8346 27.7731 39.292 27.1032 39.292C26.4332 39.292 25.8906 39.8346 25.8906 40.5045Z" fill="#AF1F2D"/>
<path d="M44.4434 40.5045V44.5058C44.4434 45.1758 44.986 45.7184 45.6559 45.7184C46.3258 45.7184 46.8684 45.1758 46.8684 44.5058V40.5045C46.8684 39.8346 46.3258 39.292 45.6559 39.292C44.986 39.292 44.4434 39.8346 44.4434 40.5045Z" fill="#AF1F2D"/>
<path d="M17.6953 33.8723C18.0166 33.8723 18.3258 33.745 18.5532 33.5177C18.7806 33.2903 18.9079 32.9811 18.9079 32.6598V30.6712C18.9139 26.388 22.3848 22.9171 26.6681 22.911H46.081C50.3643 22.9171 53.8352 26.388 53.8412 30.6712V32.6598C53.8412 33.3297 54.3838 33.8723 55.0538 33.8723C55.7237 33.8723 56.2663 33.3297 56.2663 32.6598V30.6712C56.2602 25.0481 51.7041 20.4921 46.081 20.4859H43.4013C45.9295 18.5217 47.5209 15.5903 47.7876 12.3983C48.0544 9.20927 46.9722 6.05366 44.8048 3.69518C42.6374 1.3398 39.5818 0 36.3811 0C33.1804 0 30.1244 1.33988 27.9574 3.69518C25.7899 6.05358 24.7078 9.2092 24.9745 12.3983C25.2413 15.5903 26.8327 18.5215 29.3608 20.4859H26.6811C21.058 20.492 16.5021 25.0481 16.4958 30.6712V32.6598C16.4958 33.3236 17.0324 33.8662 17.6963 33.8723L17.6953 33.8723ZM27.3956 11.4647C27.3956 7.81199 29.5963 4.51996 32.9732 3.1256C36.3471 1.73117 40.2303 2.51024 42.8101 5.09902C45.3867 7.68775 46.1476 11.574 44.741 14.9421C43.3345 18.313 40.0334 20.5016 36.381 20.4864C31.4005 20.4803 27.3659 16.4456 27.3597 11.4651L27.3956 11.4647Z" fill="#AF1F2D"/>
<path d="M46.2864 60.1357L54.4346 52.1574C54.7681 51.8361 54.8893 51.3541 54.7468 50.9115C54.6074 50.472 54.2254 50.1507 53.7677 50.084L42.503 48.5198L37.471 38.2857C37.2679 37.8673 36.8435 37.6006 36.3797 37.6006C35.916 37.6006 35.4916 37.8673 35.2885 38.2857L30.3172 48.5198L19.0524 50.1568C18.6129 50.2235 18.2461 50.5236 18.0945 50.9419C17.943 51.3572 18.0309 51.824 18.3249 52.1574L26.4731 60.0992L24.5452 71.3151C24.4573 71.7788 24.6452 72.2517 25.0302 72.5276C25.2394 72.6791 25.4879 72.758 25.7456 72.758C25.9396 72.758 26.1336 72.7095 26.3034 72.6125L36.3792 67.3379L46.4551 72.6246C46.8461 72.8155 47.3069 72.7822 47.6676 72.5397C48.0526 72.2638 48.2405 71.791 48.1526 71.3272L46.2864 60.1357ZM36.9501 64.8888C36.5924 64.6979 36.168 64.6979 35.8103 64.8888L27.3222 69.3388L28.9348 59.9172C28.9985 59.5261 28.8681 59.126 28.5832 58.8501L21.8294 52.157L31.2992 50.7868C31.6932 50.7262 32.0327 50.4776 32.2086 50.1199L36.3797 41.5596L40.6114 50.1323C40.7872 50.49 41.1267 50.7386 41.5208 50.7992L50.9906 52.1573L44.1398 58.8504C43.8549 59.1263 43.7245 59.5264 43.7882 59.9175L45.4008 69.3391L36.9501 64.8888Z" fill="#AF1F2D"/>
<path d="M23.709 64.1251L16.7854 60.4875C16.4277 60.2965 16.0033 60.2965 15.6456 60.4875L8.55226 64.2099L9.91029 56.3039C9.97395 55.9128 9.84361 55.5127 9.55866 55.2368L3.82341 49.6349L11.7536 48.4223C12.1507 48.3708 12.4932 48.1253 12.6751 47.7676L16.2157 40.5773L19.7563 47.7676C19.8987 48.1465 20.2231 48.4284 20.6172 48.5193L21.0052 48.58C21.6145 48.6679 22.1934 48.2859 22.3511 47.6918C22.5088 47.0977 22.1965 46.4763 21.6236 46.2519L17.2585 37.3882C17.0554 36.9699 16.631 36.7031 16.1673 36.7031C15.7035 36.7031 15.2791 36.9699 15.076 37.3882L10.7351 46.2154L1.03485 47.6341C0.58015 47.6977 0.201251 48.013 0.0527202 48.4465C-0.077628 48.877 0.0375638 49.3407 0.355849 49.659L7.41283 56.522L5.73957 66.2223C5.68198 66.5769 5.78504 66.9377 6.01846 67.2074C6.25187 67.4802 6.59441 67.6348 6.95209 67.6288C7.14913 67.6318 7.34616 67.5863 7.52198 67.4954L16.2282 62.9121L22.5818 66.2708C23.176 66.586 23.9095 66.3617 24.2248 65.7676C24.5401 65.1734 24.3158 64.4399 23.7216 64.1246L23.709 64.1251Z" fill="#AF1F2D"/>
<path d="M72.7551 48.4104C72.6065 47.9769 72.2276 47.6616 71.7729 47.598L62.0727 46.1793L57.7318 37.3521C57.5287 36.9338 57.1043 36.667 56.6405 36.667C56.1768 36.667 55.7524 36.9338 55.5493 37.3521L51.1842 46.2158C50.6779 46.4613 50.4051 47.0252 50.5294 47.5738C50.6537 48.1255 51.1417 48.5165 51.7055 48.5196H52.142C52.5331 48.462 52.8726 48.2195 53.0515 47.8649L56.5921 40.6746L60.1326 47.8649C60.3145 48.2226 60.6571 48.4681 61.0542 48.5196L68.9843 49.7322L63.2491 55.3341C62.9641 55.61 62.8338 56.0101 62.8974 56.4011L64.2676 64.2095L57.1136 60.4749C56.7559 60.2839 56.3315 60.2839 55.9738 60.4749L49.0502 64.1125C48.4561 64.4277 48.2317 65.1613 48.547 65.7554C48.8623 66.3496 49.5959 66.5739 50.19 66.2586L56.5437 62.9L65.2498 67.4833C65.6621 67.7015 66.1623 67.6621 66.5351 67.3863C66.9201 67.1104 67.108 66.6375 67.0201 66.1737L65.3468 56.4735L72.3916 49.6105C72.7251 49.3104 72.8672 48.8469 72.7551 48.4104Z" fill="#AF1F2D"/>
</svg>
