<svg width="131" height="72" viewBox="0 0 131 72" fill="none" xmlns="http://www.w3.org/2000/svg">
<path d="M128.969 69.4277H122.731V38.1352H122.969C123.24 38.1352 123.499 38.0279 123.69 37.8368C123.882 37.6458 123.989 37.3867 123.989 37.1165C123.989 36.8566 123.888 36.6068 123.707 36.4199C123.527 36.2329 123.28 36.1235 123.02 36.1147C123.115 35.5527 123.115 34.9788 123.02 34.4168C122.938 33.8579 122.745 33.3209 122.454 32.8371C122.162 32.3532 121.777 31.9321 121.321 31.5983L117.853 28.9326V27.6252C117.853 27.355 117.746 27.0958 117.554 26.9048C117.363 26.7137 117.104 26.6064 116.833 26.6064C116.563 26.6064 116.303 26.7137 116.112 26.9048C115.921 27.0958 115.813 27.355 115.813 27.6252V28.9495L112.516 31.5473C112.056 31.8777 111.669 32.2979 111.377 32.7824C111.084 33.2668 110.894 33.8056 110.816 34.3659C110.71 34.9268 110.71 35.5028 110.816 36.0638H110.578C110.308 36.0638 110.049 36.1711 109.857 36.3622C109.666 36.5532 109.559 36.8123 109.559 37.0825C109.559 37.3527 109.666 37.6118 109.857 37.8029C110.049 37.9939 110.308 38.1013 110.578 38.1013H111.122V43.3648H96.5218V38.1013H96.7768C97.0472 38.1013 97.3066 37.9939 97.4979 37.8029C97.6891 37.6118 97.7966 37.3527 97.7966 37.0825C97.7924 36.8211 97.6877 36.5712 97.5042 36.3848C97.3206 36.1983 97.0724 36.0894 96.8108 36.0807C96.9059 35.5188 96.9059 34.9448 96.8108 34.3828C96.6393 33.2559 96.0282 32.2425 95.1111 31.5643L91.6436 28.9326V27.6252C91.6436 27.355 91.5362 27.0958 91.3449 26.9048C91.1537 26.7137 90.8943 26.6064 90.6238 26.6064C90.3534 26.6064 90.094 26.7137 89.9027 26.9048C89.7114 27.0958 89.604 27.355 89.604 27.6252V28.9495L86.3066 31.5473C85.847 31.8777 85.4593 32.2979 85.1672 32.7824C84.875 33.2668 84.6844 33.8056 84.6069 34.3659C84.5006 34.9268 84.5006 35.5028 84.6069 36.0638H84.3519C84.0814 36.0638 83.822 36.1711 83.6308 36.3622C83.4395 36.5532 83.3321 36.8123 83.3321 37.0825C83.3321 37.3527 83.4395 37.6118 83.6308 37.8029C83.822 37.9939 84.0814 38.1013 84.3519 38.1013H84.8958V39.6803H84.5389L80.0856 36.5901C80.0856 36.5901 80.0856 36.5901 80.0856 36.4713V33.9753C80.0961 33.1614 79.8136 32.3708 79.2895 31.7475C78.7653 31.1242 78.0345 30.7097 77.2301 30.5795C77.2556 30.4678 77.2556 30.3517 77.2301 30.2399V25.299C77.4905 25.2855 77.735 25.1695 77.91 24.9764C78.7218 24.0602 79.3223 22.977 79.6688 21.8034C80.0154 20.6298 80.0997 19.3945 79.9157 18.1848C79.751 17.1115 79.3817 16.0798 78.8279 15.1455C78.8279 15.1455 78.8279 15.0436 78.8279 14.9927V11.5969C78.8302 11.4625 78.8054 11.329 78.7549 11.2043C78.7045 11.0797 78.6294 10.9665 78.5343 10.8714C78.4391 10.7764 78.3258 10.7014 78.201 10.651C78.0762 10.6006 77.9426 10.5759 77.808 10.5782C77.5376 10.5782 77.2782 10.6855 77.0869 10.8765C76.8957 11.0676 76.7882 11.3267 76.7882 11.5969V12.9043C76.5376 12.704 76.2766 12.517 76.0063 12.344L68.4596 7.43702V3.19225C68.4551 2.3441 68.1147 1.53222 67.5127 0.934077C66.9108 0.335931 66.0962 0.000168286 65.2472 0.000180158H64.9072C64.484 -0.00430041 64.064 0.0748342 63.6714 0.233035C63.2788 0.391236 62.9214 0.625382 62.6197 0.922017C62.318 1.21865 62.078 1.57193 61.9134 1.96153C61.7489 2.35114 61.663 2.76939 61.6608 3.19225V7.43702L53.8422 12.2591C53.5702 12.4459 53.2982 12.6326 53.0433 12.8364V11.512C53.0433 11.2418 52.9358 10.9827 52.7446 10.7916C52.5533 10.6006 52.2939 10.4933 52.0235 10.4933C51.753 10.4933 51.4936 10.6006 51.3023 10.7916C51.1111 10.9827 51.0036 11.2418 51.0036 11.512V14.9078C50.9957 14.9584 50.9957 15.01 51.0036 15.0606C50.4443 15.9923 50.0746 17.0252 49.9158 18.0999C49.7318 19.3096 49.8161 20.5449 50.1626 21.7185C50.5092 22.8921 51.1096 23.9753 51.9215 24.8915C52.0965 25.0847 52.3409 25.2006 52.6014 25.2141V30.189C52.5759 30.3008 52.5759 30.4168 52.6014 30.5286C51.8001 30.6624 51.0733 31.0785 50.5526 31.7014C50.0319 32.3243 49.7517 33.1129 49.7629 33.9244V36.4543C49.7629 36.4543 49.7629 36.4543 49.7629 36.5731L45.3096 39.6633H44.9527V38.0843H45.2076C45.4781 38.0843 45.7375 37.9769 45.9288 37.7859C46.12 37.5948 46.2275 37.3357 46.2275 37.0655C46.2232 36.8041 46.1185 36.5542 45.935 36.3678C45.7515 36.1813 45.5033 36.0724 45.2416 36.0638C45.3455 35.5026 45.3455 34.9271 45.2416 34.3659C45.0702 33.2389 44.4591 32.2255 43.5419 31.5473L40.2105 28.9326V27.6252C40.2105 27.355 40.1031 27.0958 39.9118 26.9048C39.7205 26.7137 39.4611 26.6064 39.1907 26.6064C38.9202 26.6064 38.6608 26.7137 38.4695 26.9048C38.2783 27.0958 38.1708 27.355 38.1708 27.6252V28.9495L34.8734 31.5473C34.4166 31.8805 34.0309 32.3014 33.739 32.7854C33.4472 33.2694 33.255 33.8067 33.1737 34.3659C33.0675 34.9268 33.0675 35.5028 33.1737 36.0638H32.9187C32.6483 36.0638 32.3889 36.1711 32.1976 36.3622C32.0064 36.5532 31.8989 36.8123 31.8989 37.0825C31.8989 37.3527 32.0064 37.6118 32.1976 37.8029C32.3889 37.9939 32.6483 38.1013 32.9187 38.1013H33.4627V43.3648H18.8792V38.1013H19.2701C19.5406 38.1013 19.8 37.9939 19.9912 37.8029C20.1825 37.6118 20.2899 37.3527 20.2899 37.0825C20.2899 36.8123 20.1825 36.5532 19.9912 36.3622C19.8 36.1711 19.5406 36.0638 19.2701 36.0638H19.1681C19.2743 35.5028 19.2743 34.9268 19.1681 34.3659C19.0868 33.8067 18.8946 33.2694 18.6028 32.7854C18.3109 32.3014 17.9252 31.8805 17.4684 31.5473L14.069 28.9326V27.6252C14.069 27.355 13.9615 27.0958 13.7703 26.9048C13.579 26.7137 13.3196 26.6064 13.0492 26.6064C12.7787 26.6064 12.5193 26.7137 12.328 26.9048C12.1368 27.0958 12.0293 27.355 12.0293 27.6252V28.9495L8.71491 31.5473C7.79772 32.2255 7.18662 33.2389 7.0152 34.3659C6.91712 34.9276 6.91712 35.502 7.0152 36.0638H6.91322C6.64274 36.0638 6.38335 36.1711 6.19209 36.3622C6.00084 36.5532 5.89339 36.8123 5.89339 37.0825C5.89339 37.3527 6.00084 37.6118 6.19209 37.8029C6.38335 37.9939 6.64274 38.1013 6.91322 38.1013H7.30415V69.4277H1.15121C1.0074 69.409 0.861255 69.4212 0.722533 69.4634C0.583812 69.5057 0.455703 69.577 0.346753 69.6726C0.237802 69.7682 0.150517 69.8859 0.0907223 70.0179C0.030928 70.1499 0 70.2931 0 70.4379C0 70.5828 0.030928 70.726 0.0907223 70.858C0.150517 70.99 0.237802 71.1077 0.346753 71.2033C0.455703 71.2989 0.583812 71.3702 0.722533 71.4124C0.861255 71.4547 1.0074 71.4669 1.15121 71.4482H128.969C129.113 71.4669 129.259 71.4547 129.398 71.4124C129.537 71.3702 129.665 71.2989 129.774 71.2033C129.883 71.1077 129.97 70.99 130.03 70.858C130.09 70.726 130.12 70.5828 130.12 70.4379C130.12 70.2931 130.09 70.1499 130.03 70.0179C129.97 69.8859 129.883 69.7682 129.774 69.6726C129.665 69.577 129.537 69.5057 129.398 69.4634C129.259 69.4212 129.113 69.409 128.969 69.4277ZM27.2247 65.6074V63.0605C27.2247 62.7903 27.1173 62.5312 26.926 62.3402C26.7348 62.1491 26.4754 62.0418 26.2049 62.0418C25.9344 62.0418 25.675 62.1491 25.4838 62.3402C25.2925 62.5312 25.1851 62.7903 25.1851 63.0605V65.6074H18.8792V58.8157H33.5986V65.6074H27.2247ZM14.154 65.6074V63.0605C14.154 62.7903 14.0465 62.5312 13.8553 62.3402C13.664 62.1491 13.4046 62.0418 13.1341 62.0418C12.8637 62.0418 12.6043 62.1491 12.413 62.3402C12.2218 62.5312 12.1143 62.7903 12.1143 63.0605V65.6074H9.42879V58.8157H16.8395V65.6074H14.154ZM45.7685 41.8367H61.8988C61.8728 42.068 61.8728 42.3015 61.8988 42.5328V43.4836H43.5589V41.8367H45.7685ZM86.5615 41.8367V43.5346H68.3237V42.5837C68.316 42.3486 68.2818 42.1151 68.2217 41.8876H86.5785L86.5615 41.8367ZM116.969 62.2116C116.699 62.2116 116.439 62.3189 116.248 62.5099C116.057 62.701 115.949 62.9601 115.949 63.2303V65.6074H113.281V58.8157H120.692V65.6074H118.006V63.0605C118.006 62.7903 117.899 62.5312 117.707 62.3402C117.516 62.1491 117.257 62.0418 116.986 62.0418L116.969 62.2116ZM104.935 65.6074V63.0605C104.935 62.7903 104.828 62.5312 104.637 62.3402C104.445 62.1491 104.186 62.0418 103.916 62.0418C103.645 62.0418 103.386 62.1491 103.194 62.3402C103.003 62.5312 102.896 62.7903 102.896 63.0605V65.6074H96.5218V58.8157H111.241V65.6074H104.935ZM90.5558 65.6074H87.1564V58.8157H94.5671V65.6074H90.5558ZM55.7968 45.4362V48.3057H48.845V45.4362H55.7968ZM59.5532 45.4362V49.3075V54.4012V61.872H57.8535V45.4362H59.5532ZM62.8336 45.4362H68.5446V48.3057H61.6608V45.4362H62.8336ZM72.301 45.4362V61.872H70.6013V45.4362H72.301ZM81.2924 45.4362V48.3057H74.3406V45.4362H81.2924ZM85.0318 45.4362V61.872H83.3321V45.4362H85.0318ZM45.0887 63.9095H85.0318V65.6074H45.0887V63.9095ZM55.7968 53.3994H48.845V50.3262H55.7968V53.3994ZM48.845 55.4199H55.7968V61.872H48.845V55.4199ZM68.5446 53.3824H61.6608V50.3262H68.6126L68.5446 53.3824ZM61.6608 55.4199H68.6126V61.872H61.6608V55.4199ZM81.3604 53.3824H74.3406V50.3262H81.2924L81.3604 53.3824ZM74.3406 55.4199H81.2924V61.872H74.3406V55.4199ZM46.8054 61.872H45.1056V45.4362H46.8054V61.872ZM113.281 38.1861H120.692V48.3736H113.281V38.1861ZM120.692 50.3262V56.8971H113.281V50.3262H120.692ZM111.241 56.8971H96.5218V50.3262H111.241V56.8971ZM94.4822 56.8971H87.1564V50.3262H94.5671L94.4822 56.8971ZM66.284 42.4479V43.3987H63.8534V42.4479C64.0114 41.6311 64.4286 40.8869 65.0432 40.3255C65.6738 40.8819 66.1087 41.6259 66.284 42.4479ZM43.049 56.9141H35.6383V50.3262H43.049V56.9141ZM33.5986 56.9141H18.8792V50.3262H33.5986V56.9141ZM9.42879 50.3262H16.8395V56.8971H9.42879V50.3262ZM9.42879 38.1692H16.8395V48.3566H9.42879V38.1692ZM35.6383 58.9516H43.049V65.7432H35.6383V58.9516ZM91.7286 67.6788H120.624V69.3767H91.7286V67.6788ZM112.89 34.6715C112.965 34.081 113.271 33.544 113.74 33.1773L116.867 30.7323L120.267 33.1943C120.729 33.5576 121.028 34.0886 121.1 34.6715C121.168 35.155 121.104 35.6482 120.913 36.0977H113.077C112.886 35.6482 112.821 35.155 112.89 34.6715ZM111.19 45.4362V48.3057H96.5218V45.4362H111.19ZM86.6805 34.6715C86.7617 34.079 87.0731 33.5422 87.5474 33.1773L90.6578 30.7323L94.0572 33.1943C94.5143 33.5594 94.8077 34.0906 94.8731 34.6715C94.9473 35.1535 94.8885 35.6466 94.7031 36.0977H86.8845C86.6876 35.6498 86.617 35.1566 86.6805 34.6715ZM87.1564 38.1861H94.5671V48.3736H87.1564V45.4362H87.6833C87.9538 45.4362 88.2132 45.3289 88.4045 45.1378C88.5957 44.9468 88.7032 44.6877 88.7032 44.4175V40.733C88.7032 40.4628 88.5957 40.2037 88.4045 40.0127C88.2132 39.8216 87.9538 39.7143 87.6833 39.7143H87.1564V38.1861ZM71.1112 27.2007C70.8407 27.2007 70.5813 27.308 70.3901 27.4991C70.1988 27.6901 70.0914 27.9492 70.0914 28.2194V30.5625H66.08V28.2534C66.08 27.9832 65.9726 27.7241 65.7813 27.533C65.5901 27.342 65.3307 27.2346 65.0602 27.2346C64.7897 27.2346 64.5303 27.342 64.3391 27.533C64.1478 27.7241 64.0404 27.9832 64.0404 28.2534V30.5965H60.1141V28.2534C60.1141 27.9832 60.0066 27.7241 59.8154 27.533C59.6241 27.342 59.3647 27.2346 59.0942 27.2346C58.8238 27.2346 58.5644 27.342 58.3731 27.533C58.1819 27.7241 58.0744 27.9832 58.0744 28.2534V30.5965H54.675C54.6832 30.5005 54.6832 30.4039 54.675 30.3079V25.316H75.4284V30.2739C75.4202 30.3699 75.4202 30.4665 75.4284 30.5625H72.029V28.2534C72.0336 28.1182 72.0111 27.9834 71.9629 27.857C71.9148 27.7306 71.8419 27.615 71.7485 27.517C71.6552 27.419 71.5432 27.3406 71.4192 27.2863C71.2952 27.232 71.1616 27.2029 71.0262 27.2007H71.1112ZM67.3038 9.13493L75.2585 13.9909C76.0469 14.4796 76.7197 15.1336 77.2304 15.9075C77.741 16.6814 78.0773 17.5569 78.216 18.4734C78.3422 19.3177 78.2959 20.1788 78.0797 21.0046C77.8635 21.8305 77.482 22.6041 76.9582 23.2785H68.4596V21.1561C68.4517 20.6962 68.3595 20.2416 68.1877 19.8148C67.7018 18.6181 66.7952 17.64 65.6381 17.0642C65.3544 16.9508 65.038 16.9508 64.7543 17.0642C63.5744 17.6166 62.6331 18.5749 62.1027 19.7638C61.9098 20.227 61.806 20.7224 61.7968 21.224V23.3464H53.1623C52.6414 22.6707 52.2629 21.8965 52.0497 21.0707C51.8364 20.2449 51.7928 19.3845 51.9215 18.5413C52.0602 17.6248 52.3964 16.7494 52.9071 15.9754C53.4177 15.2015 54.0905 14.5476 54.879 14.0589L62.7486 9.20284L67.3038 9.13493ZM63.9044 21.1561C63.9011 20.9243 63.9415 20.6939 64.0234 20.477C64.2484 19.9477 64.6274 19.4981 65.1112 19.1866C65.586 19.5082 65.9625 19.9548 66.199 20.477C66.2743 20.6957 66.3145 20.9249 66.318 21.1561V23.2785H63.8534L63.9044 21.1561ZM65.2812 2.03767C65.4336 2.03538 65.5849 2.06368 65.7262 2.12089C65.8674 2.1781 65.9958 2.26306 66.1036 2.37074C66.2113 2.47841 66.2964 2.6066 66.3537 2.74771C66.4109 2.88883 66.4393 3.04 66.437 3.19225V7.09744H63.7345V3.19225C63.7322 3.04 63.7605 2.88883 63.8178 2.74771C63.875 2.6066 63.9601 2.47841 64.0679 2.37074C64.1757 2.26306 64.304 2.1781 64.4452 2.12089C64.5865 2.06368 64.7378 2.03538 64.8903 2.03767H65.2812ZM51.9215 33.9753C51.9215 33.6106 52.0665 33.2608 52.3247 33.0029C52.5829 32.7449 52.9331 32.6 53.2982 32.6H76.8222C77.1889 32.6 77.5409 32.7444 77.8018 33.0018C78.0627 33.2592 78.2115 33.609 78.216 33.9753V35.4865H51.9215V33.9753ZM52.1764 37.524H77.944L81.0885 39.7143H67.2019C66.7484 39.1416 66.2419 38.6129 65.6891 38.1352C65.5069 37.9862 65.2787 37.9049 65.0432 37.9049C64.8078 37.9049 64.5796 37.9862 64.3973 38.1352C63.8472 38.6104 63.3462 39.1394 62.9016 39.7143H49.032L52.1764 37.524ZM42.5391 39.7143C42.2686 39.7143 42.0092 39.8216 41.818 40.0127C41.6267 40.2037 41.5193 40.4628 41.5193 40.733V44.4175C41.5193 44.6877 41.6267 44.9468 41.818 45.1378C42.0092 45.3289 42.2686 45.4362 42.5391 45.4362H43.049V48.3057H35.6383V38.1182H43.049V39.6464L42.5391 39.7143ZM35.2643 34.6205C35.2978 34.3271 35.3904 34.0435 35.5365 33.7867C35.6825 33.53 35.879 33.3053 36.1142 33.1264L39.2247 30.6814L42.6241 33.1434C43.0811 33.5084 43.3745 34.0397 43.4399 34.6205C43.5224 35.1024 43.4634 35.5978 43.27 36.0468H35.4513C35.2619 35.6147 35.1971 35.1384 35.2643 34.6715V34.6205ZM33.5646 45.3853V48.2548H18.8792V45.4362L33.5646 45.3853ZM9.05485 34.6715C9.08835 34.3781 9.18091 34.0944 9.32696 33.8377C9.473 33.5809 9.66952 33.3563 9.9047 33.1773L13.0152 30.7323L16.4146 33.1943C16.8716 33.5594 17.165 34.0906 17.2304 34.6715C17.3129 35.1533 17.2539 35.6487 17.0605 36.0977H9.24182C9.04266 35.6504 8.97771 35.155 9.05485 34.6715ZM9.44578 67.6788H38.1708V69.3767H9.44578V67.6788ZM40.2105 69.3767V67.7807H89.757V69.3767H40.2105Z" fill="currentColor"/>
</svg>
