<svg width="82" height="71" viewBox="0 0 82 71" fill="none" xmlns="http://www.w3.org/2000/svg">
<path d="M80.2664 68.3676H65.8717V66.019C65.8717 65.7779 65.7758 65.5467 65.6052 65.3762C65.4345 65.2057 65.203 65.1099 64.9616 65.1099H63.2021V52.6245H63.6723C63.9137 52.6245 64.1452 52.5287 64.3159 52.3582C64.4865 52.1877 64.5824 51.9564 64.5824 51.7153C64.5824 51.4742 64.4865 51.243 64.3159 51.0725C64.1452 50.902 63.9137 50.8062 63.6723 50.8062H63.2021V46.2605H63.824C64.0654 46.2605 64.2969 46.1647 64.4676 45.9942C64.6382 45.8237 64.7341 45.5925 64.7341 45.3514C64.7341 45.1103 64.6382 44.879 64.4676 44.7085C64.2969 44.538 64.0654 44.4422 63.824 44.4422H63.2021V29.29L66.5088 26.7141C66.663 26.6009 66.7761 26.4405 66.8308 26.2573C66.8856 26.0741 66.879 25.8781 66.8122 25.6989C66.7519 25.5218 66.6375 25.3681 66.4851 25.2594C66.3327 25.1506 66.15 25.0924 65.9628 25.0928H63.2021V19.5017C63.2021 19.2606 63.1062 19.0293 62.9356 18.8588C62.7649 18.6883 62.5334 18.5925 62.292 18.5925H60.5173V14.653C60.5173 14.4118 60.4215 14.1806 60.2508 14.0101C60.0801 13.8396 59.8486 13.7438 59.6072 13.7438H57.7567V5.97074C57.7567 5.72962 57.6608 5.49838 57.4901 5.32788C57.3195 5.15739 57.088 5.0616 56.8466 5.0616H51.4922L47.9732 2.63725V1.12202C47.9732 0.880908 47.8773 0.649665 47.7066 0.479169C47.5359 0.308673 47.3044 0.212891 47.0631 0.212891H34.5796C34.3382 0.212891 34.1067 0.308673 33.936 0.479169C33.7654 0.649665 33.6695 0.880908 33.6695 1.12202V2.63725L30.1504 5.0616H24.7505C24.5092 5.0616 24.2777 5.15739 24.107 5.32788C23.9363 5.49838 23.8404 5.72962 23.8404 5.97074V13.7287H21.9747C21.7334 13.7287 21.5019 13.8245 21.3312 13.995C21.1605 14.1655 21.0646 14.3967 21.0646 14.6378V18.5774H19.0018C18.7604 18.5774 18.5289 18.6732 18.3582 18.8437C18.1875 19.0142 18.0917 19.2454 18.0917 19.4865V25.2292H15.331C15.1438 25.2288 14.9611 25.287 14.8087 25.3957C14.6563 25.5045 14.5419 25.6582 14.4816 25.8353C14.4147 26.0145 14.4082 26.2105 14.4629 26.3937C14.5177 26.5769 14.6307 26.7373 14.785 26.8505L18.0917 29.4264V44.5786H17.7731C17.5317 44.5786 17.3003 44.6744 17.1296 44.8449C16.9589 45.0154 16.863 45.2466 16.863 45.4878C16.863 45.7289 16.9589 45.9601 17.1296 46.1306C17.3003 46.3011 17.5317 46.3969 17.7731 46.3969H18.0917V50.9426H17.6214C17.3801 50.9426 17.1486 51.0383 16.9779 51.2088C16.8072 51.3793 16.7113 51.6106 16.7113 51.8517C16.7113 52.0928 16.8072 52.324 16.9779 52.4945C17.1486 52.665 17.3801 52.7608 17.6214 52.7608H18.0917V65.1099H16.3776C16.1363 65.1099 15.9048 65.2057 15.7341 65.3762C15.5634 65.5467 15.4675 65.7779 15.4675 66.019V68.3676H1.02734C0.899006 68.351 0.768588 68.3618 0.644792 68.3995C0.520997 68.4372 0.406673 68.5008 0.309445 68.5862C0.212218 68.6715 0.134322 68.7765 0.0809611 68.8943C0.0276003 69.0121 0 69.1399 0 69.2692C0 69.3985 0.0276003 69.5262 0.0809611 69.644C0.134322 69.7618 0.212218 69.8669 0.309445 69.9522C0.406673 70.0375 0.520997 70.1011 0.644792 70.1388C0.768588 70.1765 0.899006 70.1874 1.02734 70.1707H80.2664C80.3948 70.1874 80.5252 70.1765 80.649 70.1388C80.7728 70.1011 80.8871 70.0375 80.9843 69.9522C81.0816 69.8669 81.1595 69.7618 81.2128 69.644C81.2662 69.5262 81.2938 69.3985 81.2938 69.2692C81.2938 69.1399 81.2662 69.0121 81.2128 68.8943C81.1595 68.7765 81.0816 68.6715 80.9843 68.5862C80.8871 68.5008 80.7728 68.4372 80.649 68.3995C80.5252 68.3618 80.3948 68.351 80.2664 68.3676ZM61.3819 65.1099H53.4489V52.6245H61.3819V65.1099ZM51.6287 35.3964V44.4877H50.1119C50.0312 44.4792 49.9499 44.4792 49.8692 44.4877C49.5002 42.4743 48.485 40.6356 46.9771 39.2496C45.4693 37.8636 43.5507 37.0057 41.5115 36.8055V35.2903L51.6287 35.3964ZM50.1119 46.306H51.6287V50.8516H50.1119V46.306ZM39.7368 36.8661C37.714 37.0651 35.8091 37.9093 34.3039 39.2737C32.7987 40.6382 31.7732 42.4504 31.3791 44.4422H29.6651V35.3509H39.7368V36.8661ZM31.2122 46.3211V50.8668H29.6954V46.3211H31.2122ZM33.0324 46.2454C33.0324 44.2361 33.8315 42.309 35.2538 40.8882C36.6761 39.4674 38.6051 38.6693 40.6166 38.6693C42.628 38.6693 44.557 39.4674 45.9794 40.8882C47.4017 42.309 48.2007 44.2361 48.2007 46.2454V68.3676H33.0628L33.0324 46.2454ZM50.0816 52.6245H51.5984V68.3676H50.0816V52.6245ZM61.3819 50.8062H53.4489V46.2605H61.3819V50.8062ZM19.9119 29.8961H61.3819V31.1083H19.9119V29.8961ZM35.0801 3.86458C35.198 3.78 35.294 3.66847 35.3599 3.53932C35.4259 3.41016 35.46 3.26711 35.4593 3.12212V2.07661H46.1833V3.12212C46.1856 3.2682 46.2226 3.41166 46.2911 3.54072C46.3597 3.66978 46.4579 3.78077 46.5777 3.86458L48.322 5.0616H33.3054L35.0801 3.86458ZM25.691 6.89502H56.0275V13.7438H25.691V6.89502ZM22.9152 15.5621H58.6971V18.5925H22.8848L22.9152 15.5621ZM19.8815 20.4108H61.3819V25.2444H19.9119L19.8815 20.4108ZM19.0018 27.0778H63.3083L61.9735 28.1081H19.3203L17.9855 27.0778H19.0018ZM19.9119 32.9569H61.3819V44.5029H53.4489V34.4872C53.4489 34.3678 53.4254 34.2496 53.3796 34.1393C53.3339 34.029 53.2669 33.9288 53.1824 33.8444C53.0978 33.76 52.9975 33.693 52.8871 33.6473C52.7767 33.6016 52.6583 33.5781 52.5388 33.5781H28.755C28.5136 33.5781 28.2821 33.6739 28.1114 33.8444C27.9408 34.0149 27.8449 34.2461 27.8449 34.4872V44.5029H19.9119V32.9569ZM19.9119 46.3514H27.8449V50.8971H19.9119V46.3514ZM19.9119 52.6548H27.8449V65.1099H19.9119V52.6548ZM17.2422 66.9282H27.86V68.4434H17.2422V66.9282ZM29.6651 66.019V52.6245H31.1819V68.3676H29.6651V66.019ZM53.4489 68.3676V66.8524H64.0667V68.3676H53.4489Z" fill="currentColor"/>
</svg>
