<svg width="73" height="72" viewBox="0 0 73 72" fill="none" xmlns="http://www.w3.org/2000/svg">
<path d="M71.4632 69.6177H60.5319V49.1698L62.5375 46.4169C62.5457 46.3765 62.5457 46.3349 62.5375 46.2945C62.5375 46.2945 62.5375 46.2945 62.5375 46.2028C62.5844 46.1019 62.6104 45.9927 62.614 45.8816V38.4641C62.614 38.2207 62.5172 37.9873 62.345 37.8152C62.1727 37.6431 61.9391 37.5464 61.6954 37.5464H59.5826V32.1477L61.282 29.4713C61.3717 29.3237 61.4194 29.1545 61.4198 28.9819V26.1831C61.4198 25.9397 61.3231 25.7063 61.1508 25.5342C60.9785 25.3621 60.7449 25.2655 60.5012 25.2655H59.4448V15.8597C59.6885 15.8597 59.9221 15.7631 60.0944 15.591C60.2667 15.4189 60.3634 15.1855 60.3634 14.9421V11.4398C60.3634 11.1964 60.2667 10.963 60.0944 10.7909C59.9221 10.6189 59.6885 10.5222 59.4448 10.5222V6.66813C59.4426 5.80095 59.1578 4.95807 58.6334 4.26699L57.4239 2.66113V0.917632C57.4239 0.674261 57.3271 0.440857 57.1549 0.268767C56.9826 0.0966781 56.7489 0 56.5053 0C56.2617 0 56.028 0.0966781 55.8558 0.268767C55.6835 0.440857 55.5867 0.674261 55.5867 0.917632V2.69172L54.4384 4.31287C53.9665 4.98463 53.715 5.78625 53.7189 6.60695V10.5528C53.5009 10.5788 53.2999 10.6831 53.1534 10.8464C53.0069 11.0096 52.9249 11.2206 52.9228 11.4398V14.9421C52.9249 15.1613 53.0069 15.3723 53.1534 15.5355C53.2999 15.6988 53.5009 15.8032 53.7189 15.8292V25.2655H52.6472C52.4035 25.2655 52.1699 25.3621 51.9976 25.5342C51.8254 25.7063 51.7286 25.9397 51.7286 26.1831V27.9419H20.6185V26.1831C20.6185 25.9397 20.5217 25.7063 20.3495 25.5342C20.1772 25.3621 19.9435 25.2655 19.6999 25.2655H18.6435V15.8597C18.8871 15.8597 19.1208 15.7631 19.2931 15.591C19.4653 15.4189 19.5621 15.1855 19.5621 14.9421V11.4398C19.5621 11.1964 19.4653 10.963 19.2931 10.7909C19.1208 10.6189 18.8871 10.5222 18.6435 10.5222V6.66813C18.6546 5.80617 18.386 4.9638 17.878 4.26699L16.6685 2.66113V0.917632C16.6685 0.674261 16.5717 0.440857 16.3995 0.268767C16.2272 0.0966781 15.9935 0 15.7499 0C15.5063 0 15.2726 0.0966781 15.1004 0.268767C14.9281 0.440857 14.8313 0.674261 14.8313 0.917632V2.69172L13.6831 4.31287C13.2066 4.98328 12.9498 5.78475 12.9482 6.60695V10.5528C12.7302 10.5788 12.5292 10.6831 12.3827 10.8464C12.2362 11.0096 12.1542 11.2206 12.1521 11.4398V14.9421C12.1542 15.1613 12.2362 15.3723 12.3827 15.5355C12.5292 15.6988 12.7302 15.8032 12.9482 15.8292V25.2655H11.8918C11.6482 25.2655 11.4145 25.3621 11.2422 25.5342C11.07 25.7063 10.9732 25.9397 10.9732 26.1831V28.9972C10.9737 29.1698 11.0213 29.339 11.111 29.4866L12.8104 32.1477V37.5464H10.6976C10.577 37.5464 10.4575 37.5702 10.3461 37.6163C10.2346 37.6624 10.1333 37.73 10.048 37.8152C9.96274 37.9004 9.89508 38.0016 9.84892 38.1129C9.80275 38.2242 9.77899 38.3436 9.77899 38.4641V45.8816C9.78305 46.0464 9.83637 46.2062 9.9321 46.3404L11.754 49.1545V69.6177H1.03695C0.907409 69.6009 0.775773 69.6118 0.65082 69.6499C0.525867 69.6879 0.410471 69.7521 0.312335 69.8383C0.214198 69.9244 0.135577 70.0304 0.0817178 70.1493C0.0278583 70.2682 0 70.3972 0 70.5276C0 70.6581 0.0278583 70.7871 0.0817178 70.906C0.135577 71.0249 0.214198 71.1309 0.312335 71.217C0.410471 71.3032 0.525867 71.3674 0.65082 71.4054C0.775773 71.4435 0.907409 71.4544 1.03695 71.4376H71.4632C71.5928 71.4544 71.7244 71.4435 71.8494 71.4054C71.9743 71.3674 72.0897 71.3032 72.1879 71.217C72.286 71.1309 72.3646 71.0249 72.4185 70.906C72.4723 70.7871 72.5002 70.6581 72.5002 70.5276C72.5002 70.3972 72.4723 70.2682 72.4185 70.1493C72.3646 70.0304 72.286 69.9244 72.1879 69.8383C72.0897 69.7521 71.9743 69.6879 71.8494 69.6499C71.7244 69.6118 71.5928 69.6009 71.4632 69.6177ZM26.5129 69.6177H19.7305V67.9047H26.4976L26.5129 69.6177ZM26.5129 66.0695H19.7305V49.1698L21.4606 46.7992H26.4976V66.0695H26.5129ZM18.3373 47.9463H13.285L12.5042 46.7992H19.2406L18.3373 47.9463ZM13.6524 49.7815H17.878V66.0695H13.6524V49.7815ZM18.766 32.53H53.5811V37.5158H49.9373V35.5888C49.9541 35.4594 49.9431 35.3279 49.905 35.2031C49.867 35.0783 49.8027 34.963 49.7165 34.865C49.6302 34.7669 49.5241 34.6884 49.4051 34.6346C49.2861 34.5808 49.157 34.553 49.0263 34.553C48.8957 34.553 48.7666 34.5808 48.6476 34.6346C48.5286 34.6884 48.4224 34.7669 48.3362 34.865C48.25 34.963 48.1857 35.0783 48.1476 35.2031C48.1096 35.3279 48.0986 35.4594 48.1154 35.5888V37.5158H44.839V35.5888C44.839 35.3454 44.7423 35.112 44.57 34.94C44.3977 34.7679 44.1641 34.6712 43.9204 34.6712C43.6768 34.6712 43.4432 34.7679 43.2709 34.94C43.0986 35.112 43.0018 35.3454 43.0018 35.5888V37.5158H39.7255V35.5888C39.7255 35.3454 39.6287 35.112 39.4564 34.94C39.2842 34.7679 39.0505 34.6712 38.8069 34.6712C38.5632 34.6712 38.3296 34.7679 38.1573 34.94C37.9851 35.112 37.8883 35.3454 37.8883 35.5888V37.5158H34.6119V35.5888C34.6119 35.3454 34.5151 35.112 34.3429 34.94C34.1706 34.7679 33.9369 34.6712 33.6933 34.6712C33.4497 34.6712 33.216 34.7679 33.0438 34.94C32.8715 35.112 32.7747 35.3454 32.7747 35.5888V37.5158H29.4984V35.5888C29.4984 35.3454 29.4016 35.112 29.2293 34.94C29.057 34.7679 28.8234 34.6712 28.5798 34.6712C28.3361 34.6712 28.1025 34.7679 27.9302 34.94C27.7579 35.112 27.6611 35.3454 27.6611 35.5888V37.5158H24.3848V35.5888C24.4016 35.4594 24.3906 35.3279 24.3525 35.2031C24.3145 35.0783 24.2502 34.963 24.164 34.865C24.0778 34.7669 23.9716 34.6884 23.8526 34.6346C23.7336 34.5808 23.6045 34.553 23.4738 34.553C23.3432 34.553 23.2141 34.5808 23.0951 34.6346C22.9761 34.6884 22.8699 34.7669 22.7837 34.865C22.6975 34.963 22.6332 35.0783 22.5951 35.2031C22.5571 35.3279 22.5461 35.4594 22.5629 35.5888V37.5158H18.766V32.53ZM20.297 29.8077H52.1419L52.7237 30.6948H19.6846L20.297 29.8077ZM58.6947 66.0695H54.4538V49.7815H58.6947V66.0695ZM59.2152 47.9463H54.0251L53.2443 46.7992H59.996L59.2152 47.9463ZM50.6569 39.3817V41.9511H21.9046V39.3817H50.6569ZM21.9046 43.7863H50.5956V44.964H21.9046V43.7863ZM28.3195 46.8451H44.1807V55.2414C41.9843 53.307 39.3613 51.9183 36.5257 51.1886C36.3844 51.1579 36.2382 51.1579 36.097 51.1886C33.26 51.8735 30.6326 53.2383 28.442 55.165L28.3195 46.8451ZM46.0026 46.8451H51.0243L52.5553 49.2004V66.0695H46.0026V46.7992V46.8451ZM46.0026 67.9506H52.6165V69.6635H46.0026V67.9506ZM54.4538 67.9506H58.6947V69.6788H54.4538V67.9506ZM60.884 39.4276V45.0098H52.4328V39.3817H60.884V39.4276ZM55.4183 37.5923V32.53H57.6842V37.5158L55.4183 37.5923ZM57.6076 25.3572H55.5561V15.8597H57.6842L57.6076 25.3572ZM58.5569 12.4492V14.0245H54.76V12.3574L58.5569 12.4492ZM55.9388 5.45991L56.5359 4.61875L57.179 5.45991C57.4584 5.83575 57.6087 6.29173 57.6076 6.75989V10.6139H55.5561V6.60695C55.5582 6.16529 55.6914 5.73418 55.9388 5.36815V5.45991ZM53.5658 27.1007H59.5826V28.7219L58.3119 30.7254H54.8518L53.5658 28.7219V27.1007ZM16.8216 25.2655H14.816V15.8597H16.8063L16.8216 25.2655ZM17.7555 12.3574V14.0245H13.9433V12.3574H17.7555ZM15.1528 5.36815L15.7499 4.52698L16.3776 5.36815C16.6615 5.7426 16.8172 6.19841 16.8216 6.66813V10.5222H14.816V6.60695C14.7933 6.17083 14.9055 5.73829 15.1375 5.36815H15.1528ZM12.7645 28.7219V27.1007H18.7813V28.7219L17.5106 30.7254H14.0352L12.7645 28.7219ZM14.6017 32.53H16.9441V37.5158H14.6017V32.53ZM13.6831 39.3511H20.0674V44.9334H11.6162V39.3817L13.6831 39.3511ZM13.6831 67.8742H17.878V69.5871H13.6524L13.6831 67.8742ZM28.3501 59.2331C28.3501 55.2414 35.01 53.2838 36.2807 52.9473C38.6844 53.5897 44.2113 55.792 44.2113 59.2331V69.5871H28.3195L28.3501 59.2331Z" fill="currentColor"/>
</svg>
