<svg width="116" height="71" viewBox="0 0 116 71" fill="none" xmlns="http://www.w3.org/2000/svg">
<path d="M114.101 69.1511H100.209V66.2179C100.209 65.967 100.109 65.7263 99.9318 65.5489C99.7542 65.3714 99.5133 65.2717 99.2621 65.2717H97.3361V26.935C97.3445 26.3907 97.2439 25.8502 97.0403 25.3453C96.8366 24.8403 96.5339 24.3812 96.15 23.9948C95.7662 23.6084 95.3088 23.3025 94.8049 23.0952C94.301 22.8879 93.7607 22.7833 93.2158 22.7875H93.1211C92.3137 22.7737 91.5211 23.0046 90.8478 23.4499V20.2959C90.8383 20.1483 90.8008 20.0038 90.7373 19.8701C90.3549 19.1155 89.812 18.4535 89.1466 17.9305C88.4813 17.4075 87.7095 17.0361 86.8853 16.8423V14.4137C86.8853 14.1628 86.7856 13.9221 86.6079 13.7446C86.4303 13.5672 86.1894 13.4675 85.9381 13.4675C85.6869 13.4675 85.446 13.5672 85.2684 13.7446C85.0907 13.9221 84.991 14.1628 84.991 14.4137V16.8423C84.2522 16.9911 83.5562 17.3037 82.9545 17.7569V15.423C82.9545 15.172 82.8547 14.9314 82.677 14.7539C82.4994 14.5765 82.2585 14.4768 82.0073 14.4768H77.9185V10.0612C77.918 9.89527 77.8745 9.73229 77.7922 9.58811C77.2942 8.82126 76.6457 8.16319 75.886 7.65363C75.1263 7.14407 74.2711 6.7936 73.372 6.62337V4.10018C73.372 3.84923 73.2722 3.60856 73.0946 3.43112C72.9169 3.25367 72.676 3.15399 72.4248 3.15399C72.1736 3.15399 71.9327 3.25367 71.755 3.43112C71.5774 3.60856 71.4776 3.84923 71.4776 4.10018V6.62337C69.8228 6.87358 68.3352 7.76976 67.3415 9.11502H63.2843V7.06493C63.2838 6.89899 63.2403 6.73601 63.158 6.59183C62.6501 5.77596 61.9781 5.07434 61.1847 4.53142C60.3912 3.98851 59.4934 3.61612 58.5483 3.43784V0.946196C58.5483 0.695249 58.4486 0.45458 58.2709 0.277134C58.0933 0.0996875 57.8524 0 57.6011 0C57.3499 0 57.109 0.0996875 56.9314 0.277134C56.7537 0.45458 56.6539 0.695249 56.6539 0.946196V3.53246C55.679 3.67179 54.7475 4.02737 53.928 4.57313C53.1085 5.11889 52.4217 5.84099 51.918 6.68645C51.8479 6.82331 51.8102 6.97434 51.8075 7.12801V9.1781H47.8292C46.8209 7.86432 45.3565 6.97539 43.7247 6.68645V4.10018C43.7247 3.84505 43.6232 3.60037 43.4426 3.41997C43.2621 3.23957 43.0171 3.13822 42.7617 3.13822C42.5063 3.13822 42.2614 3.23957 42.0808 3.41997C41.9002 3.60037 41.7987 3.84505 41.7987 4.10018V6.62337C40.8791 6.76325 40.0018 7.10437 39.2294 7.62234C38.4571 8.14031 37.8089 8.82233 37.3311 9.61966C37.2611 9.75652 37.2233 9.90754 37.2206 10.0612V14.4768H33.1319C32.8807 14.4768 32.6397 14.5765 32.4621 14.7539C32.2845 14.9314 32.1847 15.172 32.1847 15.423V17.7569C31.5829 17.3037 30.887 16.9911 30.1482 16.8423V14.4137C30.1482 14.1628 30.0484 13.9221 29.8708 13.7446C29.6931 13.5672 29.4522 13.4675 29.201 13.4675C28.9498 13.4675 28.7089 13.5672 28.5312 13.7446C28.3536 13.9221 28.2538 14.1628 28.2538 14.4137V16.8265C27.4339 17.0262 26.6675 17.4019 26.0077 17.9275C25.3479 18.4532 24.8107 19.1161 24.4334 19.8701C24.3845 19.996 24.3578 20.1294 24.3545 20.2644V23.4183C23.656 22.9497 22.8275 22.7125 21.9865 22.7402C21.4402 22.7359 20.8986 22.841 20.3936 23.0493C19.8887 23.2576 19.4306 23.5649 19.0465 23.953C18.6624 24.341 18.3601 24.8021 18.1574 25.3089C17.9546 25.8156 17.8556 26.3579 17.8662 26.9035V65.2244H15.8771C15.6259 65.2244 15.3849 65.3241 15.2073 65.5015C15.0297 65.679 14.9299 65.9197 14.9299 66.1706V69.1038H1.06922C0.935655 69.0865 0.79992 69.0978 0.671078 69.137C0.542236 69.1762 0.423248 69.2425 0.322057 69.3313C0.220866 69.4201 0.139798 69.5294 0.0842615 69.652C0.0287255 69.7746 0 69.9076 0 70.0421C0 70.1767 0.0287255 70.3097 0.0842615 70.4323C0.139798 70.5548 0.220866 70.6642 0.322057 70.753C0.423248 70.8418 0.542236 70.908 0.671078 70.9472C0.79992 70.9864 0.935655 70.9978 1.06922 70.9804H114.101C114.235 70.9978 114.371 70.9864 114.5 70.9472C114.628 70.908 114.747 70.8418 114.849 70.753C114.95 70.6642 115.031 70.5548 115.086 70.4323C115.142 70.3097 115.171 70.1767 115.171 70.0421C115.171 69.9076 115.142 69.7746 115.086 69.652C115.031 69.5294 114.95 69.4201 114.849 69.3313C114.747 69.2425 114.628 69.1762 114.5 69.137C114.371 69.0978 114.235 69.0865 114.101 69.1038V69.1511ZM90.8478 65.2717V60.5407V55.3367H95.4733V65.2244L90.8478 65.2717ZM82.9545 65.2717V60.8719C83.2649 60.3297 83.7064 59.8738 84.2387 59.546C84.7709 59.2182 85.3769 59.0288 86.0013 58.9953C86.6152 59.0207 87.2115 59.2076 87.7299 59.5372C88.2483 59.8667 88.6703 60.3271 88.9534 60.8719V65.2717H82.9545ZM77.887 65.2717V60.7142C77.8949 60.6303 77.8949 60.5458 77.887 60.4619V55.384H81.0443V65.2717H77.887ZM68.7465 65.2717V60.8719C69.1341 60.2753 69.6652 59.7853 70.2912 59.4465C70.9171 59.1076 71.6181 58.9308 72.3301 58.9322C73.0549 58.9437 73.7669 59.1253 74.4085 59.4622C75.0502 59.7992 75.6036 60.282 76.0241 60.8719V65.256L68.7465 65.2717ZM63.2528 65.2717V55.384H66.8521V65.2717H63.2528ZM53.6229 65.2717V61.2189C53.6229 61.2189 53.7176 61.2188 53.7492 61.0769C54.1351 60.4466 54.6752 59.9248 55.3187 59.5606C55.9622 59.1964 56.6879 59.0019 57.4275 58.9953C58.189 59.0074 58.9358 59.2065 59.602 59.575C60.2683 59.9435 60.8335 60.4702 61.2479 61.1085L61.3584 61.2346V65.2717H53.6229ZM48.2555 65.2717V55.384H51.7285V65.2717H48.2555ZM39.115 65.2717V60.8719C39.5079 60.2864 40.0387 59.8062 40.6607 59.4735C41.2828 59.1408 41.9772 58.9657 42.6828 58.9638C43.4085 58.9641 44.1237 59.1375 44.7689 59.4693C45.4141 59.8012 45.9708 60.282 46.3926 60.8719V65.2244L39.115 65.2717ZM34.0475 65.2717V55.384H37.2048V65.2717H34.0475ZM26.1542 65.2717V60.8719C26.4425 60.318 26.8744 59.8516 27.4048 59.5215C27.9352 59.1914 28.5446 59.0097 29.1694 58.9953C29.7883 59.034 30.3879 59.2257 30.9142 59.5533C31.4406 59.8809 31.8771 60.334 32.1847 60.8719V65.256L26.1542 65.2717ZM26.1542 42.153C26.4425 41.5991 26.8744 41.1327 27.4048 40.8026C27.9352 40.4725 28.5446 40.2908 29.1694 40.2764C29.7926 40.3142 30.3964 40.5071 30.9258 40.8376C31.4552 41.1682 31.8934 41.6258 32.2005 42.1688V49.5649H26.2173L26.1542 42.153ZM32.1215 39.409C31.2728 38.7603 30.238 38.401 29.1694 38.384C28.1087 38.3722 27.0746 38.7165 26.2331 39.3617V31.7606C26.5161 31.2191 26.936 30.761 27.4511 30.4318C27.9663 30.1026 28.5586 29.9137 29.1694 29.884C29.7919 29.9246 30.3945 30.1187 30.9235 30.4489C31.4525 30.7792 31.8912 31.2353 32.2005 31.7764L32.1215 39.409ZM24.2282 33.6846V41.948V49.628H19.6974V33.7003C19.9372 33.309 20.2704 32.9832 20.6671 32.7521C21.0638 32.5209 21.5117 32.3916 21.9707 32.3757C22.4397 32.3867 22.899 32.5116 23.3088 32.7396C23.7186 32.9677 24.0667 33.292 24.3229 33.6846H24.2282ZM19.6974 51.41H24.2914V53.4443H19.6974V51.41ZM26.1858 51.41H32.1531V53.4443H26.2173L26.1858 51.41ZM39.1466 31.0668C39.5414 30.4832 40.0726 30.0045 40.6943 29.672C41.3159 29.3395 42.0093 29.1633 42.7144 29.1586C43.4361 29.1658 44.1458 29.3439 44.7853 29.6784C45.4247 30.0128 45.9756 30.494 46.3926 31.0825V39.2829C45.332 38.4882 44.0402 38.0617 42.7144 38.0686C41.4322 38.0595 40.1811 38.4631 39.1466 39.2198V31.0668ZM46.3926 28.4805C45.332 27.6858 44.0402 27.2593 42.7144 27.2662C41.4291 27.2536 40.1754 27.6637 39.1466 28.4332V21.3367C39.5395 20.7512 40.0702 20.271 40.6923 19.9383C41.3144 19.6056 42.0087 19.4305 42.7144 19.4286C43.4361 19.4357 44.1458 19.6138 44.7853 19.9483C45.4247 20.2828 45.9756 20.764 46.3926 21.3525V28.4805ZM39.1466 41.948C39.5395 41.3625 40.0702 40.8823 40.6923 40.5496C41.3144 40.2169 42.0087 40.0418 42.7144 40.0398C43.4347 40.0452 44.1436 40.2209 44.7829 40.5526C45.4223 40.8843 45.9739 41.3624 46.3926 41.948V49.628H39.1466V41.948ZM46.3926 51.41V53.4443H39.1466V51.41H46.3926ZM53.6545 29.1428C54.0675 28.5115 54.6318 27.9933 55.2962 27.6353C55.9607 27.2773 56.7041 27.0908 57.4591 27.0927C58.2317 27.0991 58.9916 27.29 59.6754 27.6493C60.3591 28.0087 60.947 28.5262 61.3899 29.1586V37.8951C60.2623 37.0315 58.8799 36.5657 57.4591 36.5705C56.0874 36.567 54.7519 37.0099 53.6545 37.8321V29.1428ZM61.3899 26.5092C60.2609 25.6502 58.8783 25.1899 57.4591 25.2003C56.0859 25.1875 54.7474 25.6314 53.6545 26.4619V18.9239C54.0695 18.2946 54.6343 17.778 55.2983 17.4202C55.9623 17.0624 56.7047 16.8747 57.4591 16.8738C58.2317 16.8802 58.9916 17.0711 59.6754 17.4304C60.3591 17.7898 60.947 18.3073 61.3899 18.9397V26.5092ZM53.6545 40.5129C54.0695 39.8836 54.6343 39.367 55.2983 39.0092C55.9623 38.6514 56.7047 38.4637 57.4591 38.4629C58.2317 38.4693 58.9916 38.6601 59.6754 39.0195C60.3591 39.3788 60.947 39.8963 61.3899 40.5287V49.5176H53.6545V40.5129ZM61.3899 51.41V53.4443H53.6545V51.41H61.3899ZM68.7781 31.0668C69.1675 30.4815 69.6953 30.0012 70.3149 29.6683C70.9344 29.3355 71.6266 29.1604 72.3301 29.1586C73.054 29.1658 73.766 29.3439 74.408 29.6782C75.0499 30.0126 75.6037 30.4937 76.0241 31.0825V39.2829C74.957 38.4891 73.6606 38.0629 72.3301 38.0686C71.0531 38.0617 69.8078 38.4654 68.7781 39.2198V31.0668ZM76.0241 28.4805C74.957 27.6866 73.6606 27.2605 72.3301 27.2662C71.0531 27.2593 69.8078 27.6629 68.7781 28.4174V21.3367C69.1654 20.7495 69.6928 20.2676 70.3128 19.9345C70.9329 19.6015 71.6261 19.4276 72.3301 19.4286C73.054 19.4358 73.766 19.6138 74.408 19.9482C75.0499 20.2825 75.6037 20.7637 76.0241 21.3525V28.4805ZM68.7781 41.948C69.1675 41.3627 69.6953 40.8824 70.3149 40.5496C70.9344 40.2167 71.6266 40.0417 72.3301 40.0398C73.0527 40.0453 73.7638 40.2209 74.4056 40.5524C75.0475 40.884 75.602 41.3621 76.0241 41.948V49.628H68.7781V41.948ZM76.0241 51.41V53.4443H68.7781V51.41H76.0241ZM95.4733 53.4916H90.8478V51.41H95.4733V53.4916ZM95.4733 49.5649H90.8478V41.948V33.7476C91.0852 33.3637 91.4143 33.0446 91.8055 32.8189C92.1968 32.5932 92.6379 32.468 93.0895 32.4545C93.5611 32.4703 94.0217 32.6006 94.4315 32.8342C94.8414 33.0677 95.1881 33.3975 95.4417 33.795L95.4733 49.5649ZM88.985 33.3219V39.3617C88.1307 38.7064 87.0782 38.3615 86.0013 38.384C84.9057 38.3839 83.8405 38.7441 82.9703 39.409V31.7764C83.2773 31.2334 83.7155 30.7758 84.2449 30.4453C84.7743 30.1147 85.3781 29.9218 86.0013 29.884C86.6117 29.9153 87.2034 30.1047 87.7183 30.4338C88.2331 30.7628 88.6534 31.2201 88.9376 31.7606L88.985 33.3219ZM83.0176 42.1688C83.3203 41.6322 83.7511 41.1786 84.2717 40.8485C84.7922 40.5183 85.3864 40.3218 86.0013 40.2764C86.6125 40.3045 87.2055 40.4927 87.7209 40.8221C88.2363 41.1515 88.6559 41.6105 88.9376 42.153V49.5649H82.986L83.0176 42.1688ZM88.9534 51.41V53.4443H82.986V51.41H88.9534ZM88.9534 58.0176C88.0962 57.3979 87.0591 57.0766 86.0013 57.1029C84.9057 57.1028 83.8405 57.463 82.9703 58.1279V55.384H88.9376L88.9534 58.0176ZM81.0601 53.4443H77.9028V51.41H81.0601V53.4443ZM75.9926 58.2541C74.9348 57.4672 73.6489 57.0465 72.3301 57.0556C71.0396 57.0407 69.7802 57.4508 68.7465 58.2226V55.384H75.9926V58.2541ZM66.8521 53.4443H63.2843V51.41H66.8837L66.8521 53.4443ZM61.3584 58.4433C60.2502 57.537 58.8597 57.0461 57.4275 57.0556C56.0406 57.0396 54.6929 57.5144 53.6229 58.396V55.384H61.3584V58.4433ZM51.7285 53.4443H48.2555V51.41H51.7285V53.4443ZM46.3611 58.2541C45.2947 57.4721 44.0056 57.0521 42.6828 57.0556C41.4006 57.0465 40.1496 57.4501 39.115 58.2068V55.384H46.3611V58.2541ZM37.2206 53.4443H34.0633V51.41H37.2206V53.4443ZM32.1531 55.3367V58.0806C31.2898 57.4424 30.2434 57.0995 29.1694 57.1029C28.1116 57.0937 27.08 57.4317 26.2331 58.0649V55.384L32.1531 55.3367ZM93.1368 24.6799C93.4424 24.6647 93.7477 24.7125 94.0339 24.8204C94.3201 24.9283 94.5809 25.094 94.8002 25.307C95.0194 25.5201 95.1923 25.7761 95.3081 26.0589C95.4239 26.3417 95.4802 26.6453 95.4733 26.9508V31.1614C94.7721 30.7113 93.9545 30.4756 93.1211 30.4833C92.3294 30.479 91.5525 30.6977 90.8794 31.1141V26.9035C90.9068 26.3172 91.1544 25.7628 91.5728 25.3507C91.9912 24.9386 92.5496 24.6991 93.1368 24.6799ZM86.0013 18.6243C86.6113 18.6493 87.2039 18.8345 87.7194 19.1612C88.2349 19.4879 88.6551 19.9445 88.9376 20.4851V26.7931C88.9376 26.7931 88.9376 26.7931 88.9376 26.9193C88.9376 27.0454 88.9376 26.9193 88.9376 27.0454V28.922C88.0867 28.3001 87.0555 27.9734 86.0013 27.9916C84.9038 27.9961 83.8385 28.3619 82.9703 29.0324V20.5009C83.2793 19.9608 83.7183 19.5064 84.2476 19.1787C84.7769 18.851 85.3796 18.6604 86.0013 18.6243ZM81.0759 16.3692V49.486H77.9185V16.3692H81.0759ZM72.3143 8.48422C73.0407 8.49023 73.7554 8.66764 74.4001 9.00199C75.0448 9.33633 75.6013 9.81815 76.0241 10.4082V18.7978C74.9494 18.0205 73.6569 17.6011 72.3301 17.5992C71.0531 17.5924 69.8078 17.996 68.7781 18.7504V10.4082C69.1583 9.80827 69.6822 9.31247 70.3023 8.96555C70.9225 8.61863 71.6194 8.43153 72.3301 8.42114L72.3143 8.48422ZM66.8679 11.0705V49.5649H63.2843V11.0074L66.8679 11.0705ZM53.6387 7.3961C54.0586 6.77266 54.6248 6.26134 55.288 5.90674C55.9511 5.55215 56.6911 5.36505 57.4433 5.36177C58.2138 5.37022 58.9714 5.56031 59.6545 5.91655C60.3376 6.2728 60.9268 6.78514 61.3742 7.41186V16.3692C60.2465 15.5056 58.8642 15.0397 57.4433 15.0445C56.0682 15.0362 54.7296 15.4857 53.6387 16.3219V7.3961ZM51.7443 49.628H48.2712V11.0074H51.7443V49.628ZM39.1466 10.4082C39.5384 9.82165 40.069 9.3407 40.6913 9.00787C41.3136 8.67504 42.0085 8.50061 42.7144 8.49999C43.4345 8.50663 44.1429 8.68289 44.782 9.01445C45.4212 9.346 45.973 9.8235 46.3926 10.4082V18.7978C45.3263 18.0158 44.0372 17.5958 42.7144 17.5992C41.4322 17.5901 40.1811 17.9938 39.1466 18.7504V10.4082ZM34.0791 16.448H37.2364V49.5649H34.0791V16.448ZM29.1694 18.6243C29.79 18.6646 30.3912 18.8568 30.9198 19.1841C31.4484 19.5114 31.8882 19.9636 32.2005 20.5009V29.0324C31.3322 28.3619 30.2669 27.9961 29.1694 27.9916C28.1098 27.987 27.078 28.3306 26.2331 28.9694V27.0927C26.2331 27.0927 26.2331 27.0927 26.2331 26.9666C26.2331 26.8404 26.2331 26.872 26.2331 26.8404V20.5324C26.512 19.985 26.9301 19.5205 27.4455 19.1856C27.9609 18.8507 28.5554 18.6571 29.1694 18.6243ZM22.0023 24.6799C22.5951 24.6913 23.1613 24.9273 23.5864 25.3402C24.0114 25.7531 24.2634 26.3119 24.2914 26.9035V31.1456C23.5953 30.7117 22.7912 30.4822 21.9707 30.4833C21.1663 30.4742 20.3765 30.6988 19.6974 31.1298V26.9666C19.691 26.6645 19.7458 26.3643 19.8585 26.0839C19.9713 25.8036 20.1397 25.5489 20.3535 25.3353C20.5674 25.1217 20.8223 24.9535 21.1029 24.8408C21.3836 24.7282 21.6841 24.6735 21.9865 24.6799H22.0023ZM19.6974 55.384H24.2914V60.5881V65.319H19.6974V55.384ZM16.7927 69.1511V67.1799H98.3464V69.1669L16.7927 69.1511Z" fill="currentColor"/>
</svg>
