<svg width="132" height="71" viewBox="0 0 132 71" fill="none" xmlns="http://www.w3.org/2000/svg">
<path d="M130.379 68.5992H121.041V35.4952H121.788C122.058 35.4952 122.317 35.388 122.508 35.1972C122.699 35.0063 122.807 34.7475 122.807 34.4777C122.807 34.2078 122.699 33.949 122.508 33.7581C122.317 33.5673 122.058 33.4601 121.788 33.4601H121.024V30.3736C121.024 30.1037 120.917 29.8449 120.726 29.6541C120.535 29.4632 120.276 29.356 120.006 29.356H118.393V23.3356C118.403 21.8231 117.985 20.3386 117.186 19.054C116.386 17.7694 115.239 16.7372 113.877 16.0771V13.5672C113.877 13.2973 113.77 13.0385 113.579 12.8477C113.388 12.6569 113.128 12.5497 112.858 12.5497C112.588 12.5497 112.329 12.6569 112.138 12.8477C111.947 13.0385 111.84 13.2973 111.84 13.5672V15.9923C110.5 16.6964 109.374 17.7454 108.577 19.0305C107.78 20.3157 107.342 21.7903 107.307 23.3017C107.307 23.3017 107.307 23.3017 107.307 23.3865V29.2712H105.609C105.475 29.2689 105.341 29.2937 105.217 29.344C105.092 29.3943 104.979 29.4692 104.884 29.5642C104.789 29.6591 104.714 29.7722 104.663 29.8967C104.613 30.0212 104.588 30.1545 104.591 30.2888V33.3753H103.81C103.539 33.3753 103.28 33.4825 103.089 33.6733C102.898 33.8642 102.791 34.123 102.791 34.3929C102.791 34.6627 102.898 34.9215 103.089 35.1124C103.28 35.3032 103.539 35.4104 103.81 35.4104H104.591V40.3963H88.8019V34.2572C88.8026 32.6903 88.3428 31.1577 87.4797 29.8493C86.6166 28.541 85.3881 27.5144 83.9465 26.897V24.4549C83.9465 24.185 83.8392 23.9262 83.6482 23.7354C83.4571 23.5445 83.1981 23.4373 82.9279 23.4373C82.6577 23.4373 82.3987 23.5445 82.2076 23.7354C82.0166 23.9262 81.9093 24.185 81.9093 24.4549V26.9987C80.8174 27.6257 79.8598 28.4612 79.0911 29.4578C78.754 28.7562 78.2604 28.1412 77.6481 27.6601V22.8438H78.5478C78.818 22.8438 79.0771 22.7366 79.2681 22.5457C79.4591 22.3549 79.5665 22.0961 79.5665 21.8262C79.5665 21.5564 79.4591 21.2976 79.2681 21.1067C79.0771 20.9159 78.818 20.8087 78.5478 20.8087H77.4783C76.969 18.3666 75.0166 11.583 68.9898 9.68359V8.46254C68.9867 7.71094 68.7897 6.97282 68.4181 6.31933C68.0464 5.66584 67.5124 5.11901 66.8677 4.73156V1.01754C66.8677 0.747672 66.7604 0.488859 66.5693 0.298033C66.3783 0.107207 66.1192 0 65.8491 0C65.5789 0 65.3198 0.107207 65.1288 0.298033C64.9378 0.488859 64.8305 0.747672 64.8305 1.01754V4.76548C64.1778 5.13981 63.637 5.68139 63.2639 6.3343C62.8909 6.98722 62.6991 7.72778 62.7083 8.4795V9.59879C57.2757 11.176 54.831 16.976 54.2198 20.8087H53.1842C52.9141 20.8087 52.655 20.9159 52.464 21.1067C52.2729 21.2976 52.1656 21.5564 52.1656 21.8262C52.1656 22.0961 52.2729 22.3549 52.464 22.5457C52.655 22.7366 52.9141 22.8438 53.1842 22.8438H54.084V27.6601C53.4655 28.1393 52.9659 28.7545 52.624 29.4578C51.8553 28.4612 50.8977 27.6257 49.8058 26.9987V24.4549C49.8058 24.185 49.6985 23.9262 49.5075 23.7354C49.3165 23.5445 49.0574 23.4373 48.7872 23.4373C48.5171 23.4373 48.258 23.5445 48.0669 23.7354C47.8759 23.9262 47.7686 24.185 47.7686 24.4549V26.8631C46.2994 27.4646 45.0422 28.4885 44.1566 29.805C43.271 31.1215 42.7968 32.6711 42.7943 34.2572V40.5151H26.9888V35.4952H27.7697C28.0399 35.4952 28.299 35.388 28.49 35.1972C28.681 35.0063 28.7883 34.7475 28.7883 34.4777C28.7883 34.2078 28.681 33.949 28.49 33.7581C28.299 33.5673 28.0399 33.4601 27.7697 33.4601H26.9888V30.3736C26.9911 30.2393 26.9663 30.106 26.9159 29.9815C26.8656 29.857 26.7906 29.7439 26.6956 29.649C26.6005 29.554 26.4873 29.4791 26.3627 29.4288C26.2381 29.3785 26.1046 29.3537 25.9702 29.356H24.2725V23.4713C24.2725 23.4713 24.2725 23.4713 24.2725 23.3865C24.2378 21.8751 23.7992 20.4005 23.0023 19.1153C22.2053 17.8302 21.0788 16.7812 19.7396 16.0771V13.5672C19.7396 13.4336 19.7133 13.3013 19.6621 13.1778C19.6109 13.0544 19.5359 12.9422 19.4413 12.8477C19.3467 12.7532 19.2344 12.6783 19.1108 12.6271C18.9872 12.576 18.8548 12.5497 18.721 12.5497C18.4509 12.5497 18.1918 12.6569 18.0007 12.8477C17.8097 13.0385 17.7024 13.2973 17.7024 13.5672V16.0771C16.3401 16.7372 15.1929 17.7694 14.3936 19.054C13.5944 20.3386 13.1759 21.8231 13.1865 23.3356V29.356H11.4888C11.2187 29.356 10.9596 29.4632 10.7685 29.6541C10.5775 29.8449 10.4702 30.1037 10.4702 30.3736V33.4601H9.74019C9.47004 33.4601 9.21095 33.5673 9.01992 33.7581C8.82889 33.949 8.72157 34.2078 8.72157 34.4777C8.72157 34.7475 8.82889 35.0063 9.01992 35.1972C9.21095 35.388 9.47004 35.4952 9.74019 35.4952H10.5042V68.5992H1.14985C1.0062 68.5805 0.860236 68.5927 0.721678 68.6349C0.583121 68.6771 0.455163 68.7483 0.346342 68.8438C0.237521 68.9393 0.15034 69.0569 0.0906166 69.1887C0.030893 69.3205 0 69.4635 0 69.6082C0 69.7529 0.030893 69.896 0.0906166 70.0278C0.15034 70.1596 0.237521 70.2772 0.346342 70.3727C0.455163 70.4682 0.583121 70.5394 0.721678 70.5816C0.860236 70.6237 1.0062 70.6359 1.14985 70.6173H130.379C130.522 70.6359 130.668 70.6237 130.807 70.5816C130.945 70.5394 131.073 70.4682 131.182 70.3727C131.291 70.2772 131.378 70.1596 131.438 70.0278C131.497 69.896 131.528 69.7529 131.528 69.6082C131.528 69.4635 131.497 69.3205 131.438 69.1887C131.378 69.0569 131.291 68.9393 131.182 68.8438C131.073 68.7483 130.945 68.6771 130.807 68.6349C130.668 68.5927 130.522 68.5805 130.379 68.5992ZM112.824 61.0694C112.69 61.0671 112.556 61.0918 112.432 61.1421C112.307 61.1925 112.194 61.2673 112.099 61.3623C112.004 61.4572 111.929 61.5703 111.879 61.6948C111.828 61.8193 111.803 61.9527 111.806 62.0869V64.7834H106.713V56.9992H119.072V64.7834H113.979V62.0869C113.98 61.9411 113.95 61.7966 113.891 61.6634C113.831 61.5302 113.744 61.4113 113.634 61.3148C113.525 61.2183 113.396 61.1465 113.256 61.1041C113.116 61.0618 112.969 61.0499 112.824 61.0694ZM99.9898 64.7834C99.813 64.0101 99.4712 63.284 98.9878 62.6547C98.5043 62.0254 97.8906 61.5078 97.1886 61.1372C97.0494 61.0658 96.8951 61.0285 96.7387 61.0285C96.5822 61.0285 96.428 61.0658 96.2888 61.1372C95.587 61.5129 94.9721 62.0315 94.4837 62.6596C93.9953 63.2877 93.6444 64.0113 93.4536 64.7834H88.8359V56.9992H104.607V64.7834H99.9898ZM97.9016 64.7834H95.5588C95.7982 64.1702 96.2112 63.6399 96.7471 63.2571C97.2647 63.6505 97.6641 64.1785 97.9016 64.7834ZM83.2844 61.0354C83.0143 61.0354 82.7552 61.1427 82.5641 61.3335C82.3731 61.5243 82.2658 61.7831 82.2658 62.053V64.7834H79.5665V56.9992H86.7986V64.7834H84.303V62.0869C84.303 61.817 84.1957 61.5582 84.0047 61.3674C83.8137 61.1766 83.5546 61.0694 83.2844 61.0694V61.0354ZM48.3119 61.0354C48.0417 61.0354 47.7826 61.1427 47.5916 61.3335C47.4006 61.5243 47.2932 61.7831 47.2932 62.053V64.7834H44.7976V56.9992H52.0298V64.7834H49.3305V62.0869C49.3305 61.817 49.2232 61.5582 49.0321 61.3674C48.8411 61.1766 48.582 61.0694 48.3119 61.0694V61.0354ZM38.2615 64.7834C38.0816 64.0113 37.7386 63.2866 37.2555 62.6578C36.7724 62.0289 36.1603 61.5105 35.4603 61.1372C35.3211 61.0658 35.1669 61.0285 35.0104 61.0285C34.8539 61.0285 34.6997 61.0658 34.5605 61.1372C33.8537 61.5084 33.2339 62.0255 32.7422 62.6541C32.2505 63.2827 31.8981 64.0085 31.7084 64.7834H26.9888V56.9992H42.7604V64.7834H38.2615ZM36.1564 64.7834H33.8135C34.053 64.1702 34.4659 63.6399 35.0019 63.2571C35.5296 63.6404 35.9314 64.1716 36.1564 64.7834ZM18.7719 61.0694C18.5018 61.0694 18.2427 61.1766 18.0517 61.3674C17.8606 61.5582 17.7533 61.817 17.7533 62.0869V64.7834H12.6602V56.9992H25.0195V64.7834H19.9264V62.0869C19.9306 61.9402 19.9025 61.7944 19.844 61.6597C19.7854 61.5251 19.698 61.405 19.5879 61.3079C19.4777 61.2108 19.3475 61.1391 19.2065 61.0979C19.0655 61.0567 18.9171 61.0469 18.7719 61.0694ZM44.7976 43.2285C44.7976 43.2285 44.7976 43.2285 44.7976 43.0928V35.3765H52.0298V36.6823C52.0225 36.7158 52.0225 36.7506 52.0298 36.7841V45.111H44.7976V43.2285ZM56.8513 28.7116H74.745C75.4332 28.7093 76.097 28.9666 76.6037 29.4318C77.1104 29.8971 77.4227 30.5362 77.4783 31.2215H68.2768C67.7474 30.5108 67.0621 29.9307 66.2735 29.5256C66.1328 29.4592 65.9792 29.4247 65.8236 29.4247C65.668 29.4247 65.5144 29.4592 65.3737 29.5256C64.5792 29.9361 63.8839 30.5149 63.3365 31.2215H54.118C54.1735 30.5362 54.4859 29.8971 54.9926 29.4318C55.4993 28.9666 56.163 28.7093 56.8513 28.7116ZM64.7795 22.8438V26.6765H61.3841V22.8438H64.7795ZM66.8167 26.6765V22.8438H70.2121V26.6765H66.8167ZM119.004 54.9641H113.911V52.3016C113.911 52.0317 113.804 51.7729 113.613 51.5821C113.421 51.3912 113.162 51.284 112.892 51.284C112.622 51.284 112.363 51.3912 112.172 51.5821C111.981 51.7729 111.874 52.0317 111.874 52.3016V54.9641H106.781V47.146H119.14L119.004 54.9641ZM104.607 54.9641H99.9898C99.799 54.2074 99.451 53.4993 98.9684 52.8857C98.4858 52.2722 97.8794 51.7669 97.1886 51.4027C97.0479 51.3363 96.8942 51.3019 96.7387 51.3019C96.5831 51.3019 96.4294 51.3363 96.2888 51.4027C95.5979 51.7716 94.9899 52.2779 94.5023 52.8904C94.0147 53.5029 93.6578 54.2086 93.4536 54.9641H88.8359V47.146H104.607V54.9641ZM97.8167 54.9641H95.5927C95.844 54.3906 96.2422 53.8934 96.7471 53.5226C97.2351 53.8982 97.6156 54.3953 97.8506 54.9641H97.8167ZM83.2844 51.2162C83.0143 51.2162 82.7552 51.3234 82.5641 51.5142C82.3731 51.705 82.2658 51.9639 82.2658 52.2337V54.8963H79.5665V47.146H86.7986V54.9641H84.303V52.3016C84.3123 52.1623 84.2929 52.0227 84.2459 51.8913C84.1989 51.7599 84.1253 51.6396 84.0298 51.5378C83.9343 51.436 83.8188 51.3549 83.6906 51.2996C83.5623 51.2443 83.4241 51.2159 83.2844 51.2162ZM64.457 34.0367C64.4765 33.5496 64.6095 33.0738 64.8452 32.6469C65.081 32.2201 65.413 31.854 65.8151 31.5777C66.2138 31.8547 66.5414 32.2218 66.7715 32.6491C67.0016 33.0763 67.1276 33.5517 67.1393 34.0367V35.5461H64.457V34.0367ZM77.4953 37.8016V40.4811H54.101V37.8016H77.4953ZM58.0057 64.7834H54.0671V42.5162H58.0057V64.7834ZM60.0429 42.4823H71.5533V49.3677C70.1162 47.6957 68.1064 46.6193 65.917 46.349H65.7642C63.5748 46.6193 61.565 47.6957 60.1278 49.3677L60.0429 42.4823ZM73.6245 54.6249V42.5162H77.5632V64.7834H73.5906L73.6245 54.6249ZM86.7986 45.077H79.5665V36.7841C79.5738 36.7506 79.5738 36.7158 79.5665 36.6823V35.3765H86.7986V45.077ZM77.5292 35.7326H69.1596V34.0367C69.1781 33.777 69.1781 33.5163 69.1596 33.2566H77.5632L77.5292 35.7326ZM62.5386 33.2227C62.5201 33.4824 62.5201 33.7431 62.5386 34.0028V35.6987H54.2198V33.2566L62.5386 33.2227ZM52.0298 47.146V54.9641H49.3305V52.3016C49.3305 52.0317 49.2232 51.7729 49.0321 51.5821C48.8411 51.3912 48.582 51.284 48.3119 51.284C48.0417 51.284 47.7826 51.3912 47.5916 51.5821C47.4006 51.7729 47.2932 52.0317 47.2932 52.3016V54.9641H44.7976V47.146H52.0298ZM42.7604 54.9641H38.2445C38.0528 54.2102 37.7063 53.5043 37.227 52.8912C36.7477 52.2781 36.1461 51.7713 35.4603 51.4027C35.3196 51.3363 35.166 51.3019 35.0104 51.3019C34.8548 51.3019 34.7012 51.3363 34.5605 51.4027C33.8811 51.7749 33.286 52.2833 32.8127 52.8962C32.3394 53.5091 31.9981 54.2132 31.8102 54.9641H26.9888V47.146H42.7604V54.9641ZM36.1054 54.9641H33.8645C34.1038 54.3883 34.4973 53.8896 35.0019 53.5226C35.4997 53.8883 35.8826 54.3884 36.1054 54.9641ZM24.9516 54.9641H19.8585V52.3016C19.8585 52.0317 19.7511 51.7729 19.5601 51.5821C19.3691 51.3912 19.11 51.284 18.8398 51.284C18.7061 51.284 18.5736 51.3103 18.45 51.3615C18.3265 51.4126 18.2142 51.4876 18.1196 51.5821C18.025 51.6765 17.95 51.7887 17.8988 51.9122C17.8476 52.0356 17.8212 52.1679 17.8212 52.3016V54.9641H12.7281V47.146H25.0195L24.9516 54.9641ZM60.0429 54.608C60.1113 53.0675 60.7232 51.6008 61.7704 50.4678C62.8176 49.3349 64.2324 48.6087 65.7642 48.4179C67.3083 48.5938 68.7391 49.3134 69.8001 50.4478C70.861 51.5822 71.4826 53.0572 71.5533 54.608V64.7834H60.0429V54.608ZM112.672 17.7561C113.615 18.1571 114.44 18.7934 115.067 19.604C115.695 20.4146 116.103 21.3725 116.254 22.3859H109.463C109.633 21.4292 110.014 20.5222 110.577 19.7304C111.141 18.9385 111.874 18.2816 112.722 17.807L112.672 17.7561ZM109.276 24.4379H116.288V29.3052H113.843V27.2022C113.843 26.9324 113.736 26.6736 113.545 26.4827C113.354 26.2919 113.094 26.1847 112.824 26.1847C112.69 26.1824 112.556 26.2072 112.432 26.2575C112.307 26.3078 112.194 26.3827 112.099 26.4776C112.004 26.5726 111.929 26.6857 111.879 26.8101C111.828 26.9346 111.803 27.068 111.806 27.2022V29.356H109.31L109.276 24.4379ZM106.611 31.3402H118.97V33.4092H106.645L106.611 31.3402ZM118.97 35.4443V45.111H106.645V35.4952L118.97 35.4443ZM104.574 42.4653V45.111H88.8359V42.5162L104.574 42.4653ZM83.0128 28.6438C83.9646 29.0448 84.798 29.6822 85.4338 30.4955C86.0697 31.3088 86.4869 32.2709 86.6459 33.2905H79.6174C79.8049 32.3157 80.2109 31.3959 80.8047 30.5999C81.3986 29.804 82.1651 29.1527 83.0467 28.6946L83.0128 28.6438ZM74.711 26.6256H72.2154V22.8438H75.6108V26.7613C75.3255 26.706 75.0356 26.6776 74.745 26.6765L74.711 26.6256ZM64.6946 8.4795C64.6813 8.08383 64.7733 7.69172 64.9612 7.34315C65.1491 6.99458 65.4262 6.70202 65.7642 6.4953C66.0907 6.71134 66.3601 7.00309 66.5493 7.34564C66.7385 7.6882 66.8419 8.07141 66.8507 8.46254V9.29353C66.4174 9.23302 65.9809 9.19905 65.5435 9.19178C65.2209 9.19178 64.9323 9.19178 64.6437 9.19178L64.6946 8.4795ZM65.5944 11.2269C72.538 11.2269 74.762 18.0105 75.3901 20.8087H56.2061C56.8003 18.0444 58.9734 11.2269 65.5944 11.2269ZM56.0024 22.8438H59.3978V26.6765H56.8513C56.5689 26.6506 56.2848 26.6506 56.0024 26.6765V22.8438ZM48.5495 28.6946C49.427 29.1667 50.1874 29.8291 50.775 30.6332C51.3625 31.4373 51.7623 32.3627 51.9449 33.3414H44.9165C45.0692 32.3195 45.484 31.3545 46.1206 30.5402C46.7573 29.726 47.594 29.0902 48.5495 28.6946ZM42.7604 42.5162V45.111H26.9888V42.5162H42.7604ZM18.8738 17.807C19.7535 18.2761 20.5158 18.9376 21.1037 19.7422C21.6917 20.5469 22.0901 21.4738 22.2692 22.4537H15.3426C15.4856 21.4426 15.8851 20.4849 16.5032 19.6716C17.1213 18.8582 17.9373 18.2164 18.8738 17.807ZM15.2747 24.4888H22.2862V29.356H19.7906V27.2022C19.7929 27.068 19.7681 26.9346 19.7177 26.8101C19.6673 26.6857 19.5924 26.5726 19.4973 26.4776C19.4023 26.3827 19.2891 26.3078 19.1644 26.2575C19.0398 26.2072 18.9063 26.1824 18.7719 26.1847C18.5018 26.1847 18.2427 26.2919 18.0517 26.4827C17.8606 26.6736 17.7533 26.9324 17.7533 27.2022V29.356H15.2747V24.4888ZM12.5923 31.3911H25.0195V33.4601H12.5923V31.3911ZM25.0195 35.4952V45.111H12.5923V35.4952H25.0195ZM12.5923 68.5992V66.9033H119.004V68.5992H12.5923Z" fill="currentColor"/>
</svg>
