<svg width="124" height="72" viewBox="0 0 124 72" fill="none" xmlns="http://www.w3.org/2000/svg">
<path d="M122.548 69.3739H114.941V43.8951C114.941 43.8951 114.941 43.7878 114.941 43.752L118.521 39.7291C118.657 39.5747 118.744 39.3842 118.772 39.1809C118.801 38.9777 118.77 38.7705 118.682 38.5848C118.596 38.4008 118.459 38.2448 118.288 38.1342C118.117 38.0236 117.919 37.9629 117.716 37.959H114.959V33.042H116.123C116.408 33.042 116.681 32.929 116.882 32.7278C117.083 32.5266 117.197 32.2537 117.197 31.9692C117.197 31.6847 117.083 31.4118 116.882 31.2106C116.681 31.0094 116.408 30.8964 116.123 30.8964H114.959V26.8198C114.959 26.5353 114.846 26.2624 114.645 26.0612C114.443 25.86 114.17 25.747 113.885 25.747H88.7375V11.4431C88.7375 8.40354 85.82 4.89909 84.8892 3.86205V1.07279C84.8892 0.788267 84.7761 0.5154 84.5747 0.314213C84.3733 0.113025 84.1001 0 83.8153 0C83.5305 0 83.2573 0.113025 83.0559 0.314213C82.8545 0.5154 82.7414 0.788267 82.7414 1.07279V3.80842C81.7391 4.97061 78.911 8.49294 78.911 11.3001V16.2528C78.4361 16.0217 77.9176 15.8938 77.3896 15.8773C76.9159 15.8872 76.4492 15.9938 76.0182 16.1906C75.5873 16.3874 75.2012 16.6702 74.8838 17.0216C74.5644 16.6632 74.173 16.3761 73.7351 16.1789C73.2971 15.9818 72.8225 15.879 72.3422 15.8773C71.8681 15.8851 71.4007 15.9907 70.9694 16.1876C70.5382 16.3846 70.1524 16.6685 69.8363 17.0216C69.4932 16.6956 69.0887 16.4407 68.6463 16.2719C68.2038 16.1031 67.7323 16.0237 67.2589 16.0382C66.7852 16.0481 66.3185 16.1547 65.8875 16.3515C65.4566 16.5483 65.0705 16.8311 64.7531 17.1826C64.4337 16.8242 64.0423 16.537 63.6043 16.3398C63.1664 16.1427 62.6918 16.0399 62.2114 16.0382C61.7377 16.0481 61.271 16.1547 60.84 16.3515C60.4091 16.5483 60.023 16.8311 59.7056 17.1826C59.376 16.8274 58.9775 16.5428 58.5345 16.3461C58.0914 16.1494 57.613 16.0447 57.1282 16.0382C56.6544 16.0481 56.1877 16.1547 55.7568 16.3515C55.3258 16.5483 54.9398 16.8311 54.6223 17.1826C54.3029 16.8242 53.9115 16.537 53.4736 16.3398C53.0357 16.1427 52.5611 16.0399 52.0807 16.0382C51.6066 16.046 51.1392 16.1516 50.708 16.3486C50.2767 16.5455 49.8909 16.8294 49.5749 17.1826C49.2493 16.8223 48.8517 16.5343 48.4077 16.3372C47.9637 16.1401 47.4833 16.0382 46.9975 16.0382C46.5059 16.055 46.0237 16.1769 45.5834 16.3958V11.461C45.5834 8.42142 42.6659 4.91696 41.7352 3.87993V1.07279C41.7352 0.788267 41.6221 0.5154 41.4207 0.314213C41.2192 0.113025 40.9461 0 40.6613 0C40.3764 0 40.1033 0.113025 39.9019 0.314213C39.7005 0.5154 39.5873 0.788267 39.5873 1.07279V3.80842C38.5671 4.97061 35.7391 8.49294 35.7391 11.3001V25.604H9.9827C9.69788 25.604 9.42472 25.717 9.22332 25.9182C9.02192 26.1194 8.90877 26.3922 8.90877 26.6768V30.6461H7.99593C7.71111 30.6461 7.43795 30.7591 7.23655 30.9603C7.03515 31.1615 6.92201 31.4344 6.92201 31.7189C6.92201 32.0034 7.03515 32.2763 7.23655 32.4775C7.43795 32.6787 7.71111 32.7917 7.99593 32.7917H8.90877V37.6729H6.40294C6.19064 37.661 5.97958 37.7123 5.79651 37.8203C5.61343 37.9284 5.46659 38.0883 5.37457 38.2798C5.28256 38.4713 5.24952 38.6857 5.27965 38.896C5.30977 39.1063 5.40171 39.3029 5.5438 39.4609L8.81928 43.8951V69.3739H1.21228C1.06084 69.3543 0.906946 69.3671 0.760866 69.4116C0.614785 69.456 0.479879 69.5311 0.365149 69.6318C0.250419 69.7325 0.158504 69.8565 0.0955371 69.9954C0.0325705 70.1344 0 70.2852 0 70.4378C0 70.5903 0.0325705 70.7411 0.0955371 70.8801C0.158504 71.0191 0.250419 71.1431 0.365149 71.2437C0.479879 71.3444 0.614785 71.4195 0.760866 71.464C0.906946 71.5084 1.06084 71.5213 1.21228 71.5016H122.548C122.7 71.5213 122.854 71.5084 123 71.464C123.146 71.4195 123.281 71.3444 123.395 71.2437C123.51 71.1431 123.602 71.0191 123.665 70.8801C123.728 70.7411 123.761 70.5903 123.761 70.4378C123.761 70.2852 123.728 70.1344 123.665 69.9954C123.602 69.8565 123.51 69.7325 123.395 69.6318C123.281 69.5311 123.146 69.456 123 69.4116C122.854 69.3671 122.7 69.3543 122.548 69.3739ZM28.0247 68.9269H18.1804V59.987H28.0247V68.9269ZM18.3057 57.8235C18.599 56.5102 19.1732 55.2758 19.9888 54.2049C20.8044 53.134 21.8422 52.252 23.0309 51.6192C24.2353 52.2663 25.2897 53.1597 26.1254 54.241C26.9612 55.3223 27.5595 56.5673 27.8815 57.895H18.3057V57.8235ZM35.7033 69.3024H30.1726V58.9678C30.181 58.9025 30.181 58.8364 30.1726 58.7711C29.922 52.549 23.7827 49.6167 23.5142 49.4915C23.3732 49.4294 23.2208 49.3974 23.0667 49.3974C22.9127 49.3974 22.7603 49.4294 22.6193 49.4915C22.3508 49.6167 16.3368 52.4953 16.0862 58.789C16.0762 58.8482 16.0762 58.9086 16.0862 58.9678V69.3739H10.9671V45.1824H35.7033V69.3024ZM35.7033 42.9653H10.7882L8.58659 39.9973H35.7033V42.9653ZM35.7033 37.8517H10.9671V33.042H35.7033V37.8517ZM35.7033 30.8249H10.9671V27.9999H35.7033V30.8249ZM40.6613 5.79308C41.8121 7.13852 42.6932 8.69249 43.2566 10.3703H38.0122C38.6161 8.70496 39.5133 7.16087 40.6613 5.81096V5.79308ZM43.3998 69.356H37.8512V62.6332H43.3998V69.356ZM43.3998 60.4161H37.8512V45.1824H43.3998V60.4161ZM43.3998 42.9653H37.8512V40.0688H43.3998V42.9653ZM43.3998 37.8517H37.8512V27.8926H43.3998V37.8517ZM43.3998 19.7036V25.6755H37.8512V19.5248H43.3998V19.7036ZM43.3998 17.3077H41.6099V15.9846C41.6099 15.7001 41.4968 15.4272 41.2954 15.226C41.094 15.0248 40.8208 14.9118 40.536 14.9118C40.2512 14.9118 39.978 15.0248 39.7766 15.226C39.5752 15.4272 39.4621 15.7001 39.4621 15.9846V17.3077H37.6722V12.5338H43.2208L43.3998 17.3077ZM70.964 19.7036C70.9861 19.365 71.0973 19.0381 71.2861 18.756C71.3996 18.5633 71.5619 18.404 71.7568 18.2941C71.9517 18.1842 72.1721 18.1277 72.3959 18.1302C72.6212 18.1343 72.8424 18.1915 73.0415 18.2971C73.2405 18.4028 73.4118 18.5539 73.5414 18.7381C73.7422 19.0237 73.8655 19.3563 73.8994 19.7036V20.7049H70.964V19.7036ZM65.8807 19.7036C65.9029 19.365 66.014 19.0381 66.2029 18.756C66.3163 18.5633 66.4787 18.404 66.6735 18.2941C66.8684 18.1842 67.0889 18.1277 67.3126 18.1302C67.5424 18.1065 67.774 18.1516 67.978 18.2599C68.1821 18.3681 68.3492 18.5346 68.4581 18.7381C68.6589 19.0237 68.7822 19.3563 68.8161 19.7036V20.7049H65.8807V19.7036ZM60.7974 19.7036C60.8196 19.365 60.9307 19.0381 61.1196 18.756C61.2331 18.5633 61.3954 18.404 61.5903 18.2941C61.7851 18.1842 62.0056 18.1277 62.2293 18.1302C62.4561 18.1266 62.6802 18.1805 62.8805 18.2868C63.0808 18.3931 63.2509 18.5484 63.3749 18.7381C63.5757 19.0237 63.699 19.3563 63.7328 19.7036V20.7049H60.7974V19.7036ZM55.7142 19.7036C55.7363 19.365 55.8475 19.0381 56.0364 18.756C56.154 18.5631 56.3198 18.4041 56.5175 18.2944C56.7151 18.1847 56.9379 18.1281 57.164 18.1302C57.4034 18.1375 57.6364 18.2095 57.8382 18.3386C58.0399 18.4677 58.2028 18.649 58.3095 18.8633C58.5103 19.1488 58.6336 19.4815 58.6675 19.8288V20.83H55.7142V19.7036ZM50.6309 19.7036C50.6531 19.365 50.7642 19.0381 50.9531 18.756C51.0665 18.5633 51.2289 18.404 51.4238 18.2941C51.6186 18.1842 51.8391 18.1277 52.0628 18.1302C52.289 18.1298 52.5119 18.1851 52.7116 18.2911C52.9114 18.3971 53.082 18.5506 53.2083 18.7381C53.4091 19.0237 53.5325 19.3563 53.5663 19.7036V20.7049H50.6309V19.7036ZM45.5476 19.7036C45.5698 19.365 45.6809 19.0381 45.8698 18.756C45.9915 18.5678 46.1585 18.413 46.3555 18.3059C46.5524 18.1987 46.7732 18.1426 46.9975 18.1426C47.2217 18.1426 47.4425 18.1987 47.6394 18.3059C47.8364 18.413 48.0034 18.5678 48.1251 18.756C48.3259 19.0415 48.4492 19.3742 48.483 19.7215V20.7228H45.5476V19.7036ZM51.5258 69.3024H45.5476V66.7813H51.5258V69.3024ZM71.2145 69.3024H53.6737V54.9985C53.6737 49.4379 60.8332 46.738 62.4262 46.2016C64.0192 46.7559 71.1966 49.5809 71.1966 54.9985L71.2145 69.3024ZM79.0005 69.3024H73.3445V66.7813H78.9826L79.0005 69.3024ZM79.0005 64.5642H73.3445V54.9985C73.3445 47.3638 63.178 44.1812 62.7484 44.056C62.5505 43.993 62.3378 43.993 62.1398 44.056C61.7103 44.1633 51.5258 47.1671 51.5258 54.9985V64.6536H45.5476V40.0688H78.9826L79.0005 64.5642ZM79.0005 37.8517H45.5476V33.042H47.5702V35.4021C47.5702 35.6867 47.6834 35.9595 47.8848 36.1607C48.0862 36.3619 48.3593 36.4749 48.6441 36.4749C48.929 36.4749 49.2021 36.3619 49.4035 36.1607C49.6049 35.9595 49.7181 35.6867 49.7181 35.4021V33.042H53.9601V35.4021C53.9577 35.5437 53.9838 35.6843 54.0369 35.8155C54.09 35.9468 54.169 36.066 54.2692 36.1661C54.3694 36.2662 54.4888 36.3452 54.6202 36.3982C54.7516 36.4513 54.8923 36.4774 55.034 36.4749C55.3188 36.4749 55.592 36.3619 55.7934 36.1607C55.9948 35.9595 56.1079 35.6867 56.1079 35.4021V33.042H60.3321V35.4021C60.3321 35.6867 60.4452 35.9595 60.6466 36.1607C60.848 36.3619 61.1212 36.4749 61.406 36.4749C61.6908 36.4749 61.964 36.3619 62.1654 36.1607C62.3668 35.9595 62.4799 35.6867 62.4799 35.4021V33.042H66.704V35.4021C66.704 35.6867 66.8172 35.9595 67.0186 36.1607C67.22 36.3619 67.4931 36.4749 67.778 36.4749C68.0628 36.4749 68.336 36.3619 68.5374 36.1607C68.7388 35.9595 68.8519 35.6867 68.8519 35.4021V33.042H73.076V35.4021C73.076 35.6867 73.1892 35.9595 73.3906 36.1607C73.592 36.3619 73.8651 36.4749 74.1499 36.4749C74.2916 36.4774 74.4324 36.4513 74.5638 36.3982C74.6952 36.3452 74.8145 36.2662 74.9147 36.1661C75.0149 36.066 75.094 35.9468 75.1471 35.8155C75.2002 35.6843 75.2263 35.5437 75.2239 35.4021V33.042H78.911L79.0005 37.8517ZM79.0005 30.8249H45.5476V27.8926H78.9826L79.0005 30.8249ZM79.0005 25.6755H45.5476V22.922H78.9826L79.0005 25.6755ZM79.0005 20.7049H76.0472V19.7036C76.0694 19.365 76.1805 19.0381 76.3694 18.756C76.4828 18.5633 76.6452 18.404 76.8401 18.2941C77.0349 18.1842 77.2554 18.1277 77.4791 18.1302C77.7083 18.1111 77.9382 18.1583 78.1413 18.2661C78.3444 18.3739 78.5122 18.5377 78.6246 18.7381C78.8254 19.0237 78.9488 19.3563 78.9826 19.7036L79.0005 20.7049ZM83.9406 5.73944C85.0914 7.08488 85.9726 8.63885 86.5359 10.3167H81.2737C81.8833 8.67025 82.7802 7.14475 83.9227 5.81096L83.9406 5.73944ZM86.6791 69.3024H81.1305V62.6332H86.6612L86.6791 69.3024ZM86.6791 60.3625H81.1305V45.1824H86.6612L86.6791 60.3625ZM86.6791 42.9117H81.1305V40.0688H86.6612L86.6791 42.9117ZM86.6791 37.7981H81.1305V27.8926H86.6612L86.6791 37.7981ZM86.6791 25.6219H81.1305V19.5248H86.6612L86.6791 25.6219ZM86.6791 17.2541H84.8892V15.931C84.8892 15.6464 84.7761 15.3736 84.5747 15.1724C84.3733 14.9712 84.1001 14.8582 83.8153 14.8582C83.5305 14.8582 83.2573 14.9712 83.0559 15.1724C82.8545 15.3736 82.7414 15.6464 82.7414 15.931V17.2541H81.0589V12.5338H86.5896L86.6791 17.2541ZM88.7375 27.8926H112.811V30.8964H88.7375V27.8926ZM88.7375 33.042H112.811V37.9232H88.7375V33.042ZM105.491 68.9269H95.6464V59.987H105.491V68.9269ZM95.7717 57.8235C96.0651 56.5102 96.6392 55.2758 97.4548 54.2049C98.2704 53.134 99.3082 52.252 100.497 51.6192C101.694 52.2586 102.743 53.1408 103.579 54.2092C104.414 55.2777 105.017 56.5088 105.348 57.8235H95.7717ZM112.793 69.3024H107.657V58.9678C107.667 58.8787 107.667 58.7887 107.657 58.6996C107.352 52.5311 101.267 49.6167 101.016 49.4915C100.872 49.43 100.717 49.3983 100.56 49.3983C100.403 49.3983 100.248 49.43 100.103 49.4915C99.8347 49.6167 93.767 52.5132 93.5702 58.8784C93.5684 58.9082 93.5684 58.9381 93.5702 58.9678V69.3739H88.7375V45.1824H112.722L112.793 69.3024ZM112.668 42.9653H88.7375V40.0688H115.246L112.668 42.9653Z" fill="currentColor"/>
</svg>
